<svg width="18" height="18" viewBox="0 0 18 18" fill="none" xmlns="http://www.w3.org/2000/svg">
<path d="M7.8503 17.6109C9.77327 17.6086 11.6213 16.8644 13.0093 15.5336C14.3972 14.2025 15.2183 12.3875 15.3013 10.4662H13.6078H13.608C13.2803 10.4668 13.0095 10.2103 12.9925 9.88292C12.9255 8.56441 12.3546 7.32188 11.3976 6.41228C10.4404 5.50292 9.17048 4.9959 7.85029 4.99609C7.51092 4.99477 7.23623 4.7199 7.23474 4.38054V2.7195C4.65642 2.93887 2.37618 4.47879 1.2093 6.78846C0.0424655 9.09826 0.156274 11.8477 1.50967 14.0533C2.86303 16.2586 5.2627 17.6053 7.85047 17.6111L7.8503 17.6109ZM7.8503 7.27042C8.61474 7.26967 9.34804 7.57267 9.889 8.11267C10.43 8.65287 10.734 9.38578 10.7344 10.15C10.735 10.9145 10.4318 11.6478 9.89145 12.1885C9.35125 12.7293 8.61834 13.0333 7.85389 13.0334C7.08945 13.0336 6.35634 12.7303 5.81577 12.1897C5.27519 11.6493 4.97145 10.9164 4.97145 10.152C4.9722 9.38847 5.27557 8.65627 5.81519 8.11608C6.355 7.57589 7.08681 7.27172 7.8503 7.27042ZM6.45513 10.1519C6.45513 9.78179 6.60213 9.42702 6.86387 9.16546C7.12544 8.90372 7.48039 8.75671 7.85032 8.75671C8.22026 8.75671 8.57522 8.90372 8.83677 9.16546C9.09833 9.42702 9.24533 9.78178 9.24533 10.1519C9.24533 10.5218 9.09833 10.8768 8.83677 11.1384C8.57521 11.3999 8.22026 11.5469 7.85032 11.5469C7.48057 11.5462 7.126 11.399 6.86464 11.1376C6.60308 10.876 6.45588 10.5217 6.45513 10.1519ZM8.46589 3.79479V0.407959C10.7823 0.567895 12.9676 1.54158 14.6358 3.15692C16.3036 4.77222 17.3469 6.9253 17.581 9.23516H14.1646C13.9608 7.82142 13.2884 6.51697 12.2553 5.53052C11.222 4.54407 9.88775 3.93284 8.46613 3.79465L8.46589 3.79479Z" fill="#009A93"/>
</svg>
