<svg width="22" height="20" viewBox="0 0 22 20" fill="none" xmlns="http://www.w3.org/2000/svg">
<path d="M12.5895 1.1925C12.5878 1.06935 15.3074 0.744922 15.4303 0.742938C15.4904 0.742176 15.5484 0.765674 15.5909 0.808404C15.6336 0.850981 15.657 0.909118 15.6563 0.969396V18.9914C15.6584 19.052 15.636 19.1109 15.594 19.1546C15.5519 19.1984 15.2731 19.1546 15.2731 19.1546C15.2731 19.1546 12.5872 18.8287 12.5895 18.7681V1.1925Z" fill="#009A93"/>
<path d="M6.13337 3.625L12.1438 1.2862V2.44685L6.13411 4.50274L6.13337 3.625Z" fill="#009A93"/>
<path d="M6.13411 4.8265L12.1438 2.79404L12.1431 4.57439L6.13345 5.95787L6.13411 4.8265Z" fill="#009A93"/>
<path d="M3.49887 5.81064C3.49887 5.43478 3.80769 5.125 4.18275 5.125C4.55781 5.125 4.86648 5.43478 4.86648 5.81064C4.86648 6.18649 4.55781 6.49596 4.18275 6.49596C3.80769 6.49596 3.49887 6.18649 3.49887 5.81064Z" fill="#009A93"/>
<path d="M6.13411 6.23117L12.1438 4.88829L12.143 6.24206L6.13337 7.375L6.13411 6.23117Z" fill="#009A93"/>
<path d="M17.8221 5.33496C17.8457 5.33451 17.8691 5.33451 17.8923 5.33481C18.2355 5.34083 18.5298 5.44042 18.7988 5.53146L18.8098 5.53516C19.0997 5.63328 19.3612 5.72072 19.6488 5.71736C19.906 5.71496 20.1146 5.63615 20.3629 5.54238L20.3735 5.53837C20.6263 5.44284 20.92 5.33495 21.2968 5.33495C21.3571 5.33312 21.4156 5.35586 21.4588 5.39782C21.5021 5.43994 21.5266 5.49778 21.5266 5.55821C21.5266 5.61864 21.5021 5.67647 21.4588 5.71859C21.4156 5.76056 21.3571 5.78314 21.2968 5.78116C21.0034 5.78116 20.7803 5.86158 20.5307 5.95588C20.2811 6.05019 20.0041 6.16021 19.6528 6.16357C19.284 6.167 18.9724 6.06133 18.689 5.96525L18.6672 5.95787C18.3779 5.86005 18.1178 5.77551 17.8311 5.78131C17.5982 5.78604 17.2386 5.87516 16.9505 5.96657C16.6625 6.05797 16.4429 6.14725 16.4429 6.14725C16.3878 6.17166 16.3252 6.17273 16.2693 6.15015C16.2134 6.12756 16.1689 6.08331 16.1463 6.0273C16.1236 5.97145 16.1243 5.90858 16.1485 5.85334C16.1728 5.7981 16.2183 5.75476 16.2748 5.7337C16.2748 5.7337 16.5099 5.63772 16.8158 5.54067C17.1217 5.44377 17.4959 5.34153 17.8221 5.33496Z" fill="#009A93"/>
<path d="M0.587706 7.23332C0.587706 6.92125 0.845062 6.66366 1.15647 6.66366C1.46789 6.66366 1.72524 6.92125 1.72524 7.23332C1.72524 7.54539 1.46789 7.80328 1.15647 7.80328C0.845058 7.80328 0.587706 7.54538 0.587706 7.23332Z" fill="#009A93"/>
<path d="M6.13372 7.62608L12.1434 6.56826L12.143 8.24276L6.13411 8.76027L6.13372 7.62608Z" fill="#009A93"/>
<path d="M17.8217 7.02697C17.8453 7.02651 17.8687 7.02651 17.8919 7.02681C18.2347 7.03283 18.5286 7.13231 18.7973 7.22325L18.8094 7.22732C19.0993 7.3256 19.3608 7.41273 19.6484 7.40937C19.9056 7.40697 20.1143 7.32816 20.3625 7.23439L20.3731 7.23038C20.6259 7.13485 20.9197 7.02696 21.2964 7.02696C21.4194 7.02696 21.5192 7.12707 21.5192 7.25037C21.5192 7.37367 21.4194 7.47362 21.2964 7.47362C21.003 7.47362 20.7799 7.55404 20.5303 7.64835C20.2807 7.74266 20.0037 7.85268 19.6524 7.85604C19.2836 7.85946 18.972 7.7538 18.6886 7.65771L18.6669 7.65033C18.3775 7.55237 18.1174 7.46783 17.8307 7.47363C17.5979 7.47836 17.2382 7.56717 16.9501 7.65858C16.6621 7.74998 16.4425 7.83956 16.4425 7.83956C16.3289 7.88412 16.2008 7.82903 16.1549 7.7158C16.1089 7.60272 16.1622 7.47363 16.2744 7.42601C16.2744 7.42601 16.5095 7.33018 16.8154 7.23313C17.1213 7.13608 17.4955 7.03353 17.8217 7.02697Z" fill="#009A93"/>
<path d="M2.92012 9.67706C2.92012 9.22444 3.29093 8.85301 3.74243 8.85301C4.19395 8.85301 4.56475 9.2246 4.56475 9.67706C4.56475 10.1295 4.19394 10.5011 3.74243 10.5011C3.29077 10.5011 2.92012 10.1295 2.92012 9.67706Z" fill="#009A93"/>
<path d="M6.13353 9.03105L12.1432 8.54351L12.143 9.88475L6.13411 10.0088L6.13353 9.03105Z" fill="#009A93"/>
<path d="M17.8215 8.71946C17.8451 8.719 17.8685 8.719 17.8917 8.71931C18.235 8.72518 18.5293 8.82477 18.7983 8.91581L18.8092 8.91951C19.0991 9.01763 19.3606 9.10507 19.6482 9.10171C19.9054 9.0993 20.1141 9.0205 20.3623 8.92672L20.3729 8.92271C20.6257 8.82719 20.9195 8.7193 21.2962 8.7193C21.3567 8.71717 21.4154 8.7396 21.459 8.78171C21.5025 8.82383 21.5272 8.88182 21.5272 8.9424C21.5272 9.00314 21.5025 9.06113 21.459 9.10324C21.4154 9.14536 21.3567 9.16764 21.2962 9.1655C21.0028 9.1655 20.7797 9.24623 20.5301 9.34054C20.2805 9.43484 20.0035 9.54487 19.6522 9.54822C19.2834 9.55165 18.9718 9.44599 18.6884 9.3499L18.6667 9.34252C18.3773 9.24471 18.1173 9.15971 17.8305 9.16551C17.5977 9.17024 17.238 9.25936 16.9499 9.35076C16.6619 9.44217 16.4423 9.53144 16.4423 9.53144C16.3872 9.55631 16.3243 9.55769 16.2681 9.5351C16.2121 9.51267 16.1674 9.46827 16.1446 9.41211C16.1218 9.35595 16.1227 9.29293 16.1472 9.23754C16.1716 9.18214 16.2175 9.13911 16.2742 9.11835C16.2742 9.11835 16.5093 9.02222 16.8152 8.92516C17.1211 8.82811 17.4953 8.72602 17.8215 8.71946Z" fill="#009A93"/>
<path d="M6.13411 11.2624L6.13345 10.2347H12.1431L12.143 11.6947L6.13411 11.2624Z" fill="#009A93"/>
<path d="M20.3727 10.6152C20.6255 10.5196 20.9192 10.4114 21.2959 10.4114C21.4179 10.4128 21.5163 10.5123 21.5163 10.6345C21.5163 10.7569 21.4181 10.8563 21.2961 10.8578C21.0027 10.8578 20.7796 10.9382 20.53 11.0325C20.2804 11.1268 20.0034 11.2368 19.6521 11.2402C19.2836 11.2436 18.9724 11.1381 18.689 11.0421L18.6666 11.0345C18.3772 10.9365 18.1172 10.852 17.8304 10.8578C17.5976 10.8625 17.2379 10.9516 16.9498 11.043C16.6618 11.1345 16.4422 11.2237 16.4422 11.2237C16.3871 11.2486 16.3242 11.2498 16.268 11.2274C16.212 11.2048 16.1674 11.1604 16.1445 11.1042C16.1218 11.0482 16.1227 10.9852 16.1471 10.9298C16.1715 10.8744 16.2175 10.8317 16.2741 10.8108C16.2741 10.8108 16.5093 10.7147 16.8152 10.6176C17.1211 10.5206 17.4952 10.4185 17.8214 10.4119C18.1958 10.4042 18.5117 10.5113 18.7993 10.6087L18.8089 10.612C19.0988 10.7101 19.3603 10.7975 19.648 10.7942C19.9052 10.7918 20.1138 10.713 20.362 10.6192L20.3727 10.6152Z" fill="#009A93"/>
<path d="M0.500305 12.2675C0.500305 11.8917 0.809127 11.5822 1.18419 11.5822C1.55925 11.5822 1.86808 11.8917 1.86808 12.2675C1.86808 12.6434 1.55925 12.9527 1.18419 12.9527C0.809127 12.9527 0.500305 12.6434 0.500305 12.2675Z" fill="#009A93"/>
<path d="M6.13329 12.6781L6.13337 11.4613L12.143 11.9489L12.143 13.6419L6.13329 12.6781Z" fill="#009A93"/>
<path d="M17.8213 12.1037C17.8449 12.1033 17.8684 12.1033 17.8915 12.1036C18.2351 12.1096 18.5294 12.2092 18.7986 12.3003L18.8089 12.3038C19.0988 12.4019 19.3603 12.4894 19.6479 12.486C19.9051 12.4836 20.1138 12.4048 20.362 12.311L20.3726 12.307C20.6254 12.2115 20.9192 12.1036 21.2959 12.1036C21.4182 12.1047 21.5167 12.2043 21.5167 12.3268C21.5167 12.4494 21.4182 12.549 21.2959 12.5502C21.0025 12.5502 20.7794 12.6307 20.5298 12.725C20.2802 12.8193 20.0032 12.9293 19.6519 12.9327C19.2831 12.9361 18.9715 12.8304 18.6881 12.7343L18.6664 12.727C18.377 12.629 18.1169 12.5445 17.8302 12.5503C17.5973 12.555 17.2377 12.6438 16.9496 12.7352C16.6616 12.8266 16.442 12.9162 16.442 12.9162C16.3872 12.9386 16.3258 12.9383 16.2711 12.9154C16.2166 12.8924 16.1734 12.8486 16.151 12.7936C16.1288 12.7387 16.1291 12.6771 16.1522 12.6224C16.1752 12.5678 16.2192 12.5249 16.274 12.5026C16.274 12.5026 16.5092 12.4068 16.8151 12.3098C17.121 12.2127 17.4951 12.1103 17.8213 12.1037Z" fill="#009A93"/>
<path d="M4.44125 13.2115C4.44125 12.8994 4.69861 12.6417 5.01002 12.6417C5.32143 12.6417 5.57863 12.8994 5.57863 13.2115C5.57863 13.5236 5.32143 13.7811 5.01002 13.7811C4.6986 13.7811 4.44125 13.5236 4.44125 13.2115Z" fill="#009A93"/>
<path d="M6.13329 14.0703V12.8712L12.143 13.929V15.3916L6.13329 14.0703Z" fill="#009A93"/>
<path d="M17.8214 13.7961C17.845 13.7956 17.8685 13.7956 17.8916 13.7959C18.2355 13.802 18.5299 13.9016 18.7993 13.9928L18.8088 13.996C19.0987 14.0943 19.3602 14.1817 19.6478 14.1783C19.9051 14.1759 20.1137 14.0971 20.3619 14.0034L20.3725 13.9993C20.6253 13.9038 20.9191 13.7959 21.2958 13.7959C21.356 13.7941 21.4144 13.8167 21.4577 13.8588C21.5011 13.9008 21.5255 13.9586 21.5255 14.019C21.5255 14.0795 21.5011 14.1373 21.4577 14.1794C21.4144 14.2214 21.356 14.2438 21.2958 14.242C21.0024 14.242 20.7793 14.3224 20.5297 14.4167C20.2801 14.511 20.0031 14.621 19.6518 14.6244C19.283 14.6278 18.9714 14.5222 18.6881 14.4261L18.6663 14.4187C18.3769 14.3207 18.1169 14.2363 17.8301 14.2421C17.5973 14.2469 17.2376 14.336 16.9495 14.4274C16.6615 14.5188 16.4419 14.6081 16.4419 14.6081C16.3868 14.6326 16.3242 14.6336 16.2683 14.611C16.2124 14.5884 16.1681 14.5441 16.1454 14.4881C16.1226 14.4323 16.1235 14.3696 16.1477 14.3142C16.1719 14.2589 16.2178 14.2162 16.2741 14.195C16.2741 14.195 16.5092 14.0989 16.8152 14.0018C17.1211 13.9047 17.4952 13.8027 17.8214 13.7961Z" fill="#009A93"/>
<path d="M1.85735 15.3812C1.85735 14.9287 2.22816 14.5568 2.67967 14.5568C3.13119 14.5568 3.50199 14.9287 3.50199 15.3812C3.50199 15.8336 3.13119 16.2052 2.67967 16.2052C2.22815 16.2052 1.85735 15.8336 1.85735 15.3812Z" fill="#009A93"/>
<path d="M6.13411 15.4789L6.13356 14.2702L12.1432 15.6133L12.143 17.4259L6.13411 15.4789Z" fill="#009A93"/>
<path d="M6.13329 16.44L6.13354 15.6887L12.1432 17.7209V18.6742L6.13329 16.44Z" fill="#009A93"/>
</svg>
