<svg width="16" height="18" viewBox="0 0 16 18" fill="none" xmlns="http://www.w3.org/2000/svg">
<path d="M11.4573 5.42376V4.10918H9.57571C9.40884 4.59763 9.02597 4.98144 8.5381 5.14963V14.1165H11.4573V12.5843V12.5844C11.4573 12.237 11.5951 11.9038 11.8405 11.6578C12.086 11.4118 12.419 11.2734 12.7664 11.2727H13.8415C14.1889 11.2734 14.5219 11.4118 14.7674 11.6578C15.0128 11.9038 15.1506 12.237 15.1506 12.5844V16.2992C15.1506 16.6457 15.0136 16.9782 14.7692 17.224C14.5249 17.4698 14.1934 17.6089 13.8469 17.611H12.7716C12.4242 17.6102 12.0914 17.4719 11.8459 17.2259C11.6005 16.9799 11.4627 16.6467 11.4627 16.2992V15.1919H4.54397V16.2886C4.54679 16.6379 4.41028 16.9739 4.16448 17.2221C3.91885 17.4704 3.58415 17.6102 3.23486 17.611H2.15976C1.81232 17.6102 1.47931 17.4719 1.23388 17.2259C0.988445 16.9799 0.850632 16.6467 0.850632 16.2992V12.5952C0.850632 12.2477 0.988445 11.9145 1.23388 11.6685C1.47932 11.4227 1.81233 11.2841 2.15976 11.2834H3.23486C3.5823 11.2841 3.91531 11.4227 4.16073 11.6685C4.40617 11.9145 4.54398 12.2477 4.54398 12.5952V14.1165H7.46315V5.14964C6.97413 4.9822 6.59013 4.59821 6.42289 4.10919H4.54134V5.42377C4.54134 5.7712 4.40334 6.10441 4.15809 6.35041C3.91265 6.59622 3.57964 6.73478 3.23222 6.73553H2.15712C1.80968 6.73478 1.47667 6.59622 1.23124 6.35041C0.985805 6.10441 0.847992 5.77124 0.847992 5.42377V1.7197C0.847992 1.37264 0.98543 1.03983 1.2303 0.794023C1.47518 0.54821 1.80741 0.409274 2.1543 0.407959H3.2296C3.57704 0.408709 3.90985 0.547082 4.15528 0.793082C4.4007 1.03908 4.53853 1.37225 4.53853 1.71972V3.03411H6.42008C6.57046 2.59198 6.89952 2.23308 7.32704 2.04507C7.75456 1.85705 8.24149 1.857 8.66898 2.04507C9.09647 2.23313 9.42555 2.59203 9.57594 3.03411H11.4575V1.71972C11.4575 1.37228 11.5953 1.03908 11.8407 0.793082C12.0862 0.547082 12.4192 0.408708 12.7666 0.407959H13.8417C14.1892 0.408709 14.5222 0.547082 14.7676 0.793082C15.013 1.03908 15.1508 1.37225 15.1508 1.71972V5.42379C15.1508 5.77122 15.013 6.10443 14.7676 6.35043C14.5222 6.59624 14.1891 6.7348 13.8417 6.73555H12.7666C12.4192 6.7348 12.0862 6.59624 11.8407 6.35043C11.5953 6.10443 11.4575 5.77126 11.4575 5.42379L11.4573 5.42376Z" fill="white"/>
</svg>
