<svg width="19" height="19" viewBox="0 0 19 19" fill="none" xmlns="http://www.w3.org/2000/svg">
<path d="M15.4419 4.91859C15.4419 5.70848 14.8015 6.34882 14.0116 6.34882C13.2217 6.34882 12.5814 5.70848 12.5814 4.91859C12.5814 4.12869 13.2217 3.48836 14.0116 3.48836C14.8015 3.48836 15.4419 4.12869 15.4419 4.91859Z" fill="#009A93"/>
<path fill-rule="evenodd" clip-rule="evenodd" d="M18.6512 4.91859C18.6512 7.48093 16.574 9.55812 14.0116 9.55812C11.4493 9.55812 9.37209 7.48093 9.37209 4.91859C9.37209 2.35624 11.4493 0.279053 14.0116 0.279053C16.574 0.279053 18.6512 2.35624 18.6512 4.91859ZM16.8372 4.91859C16.8372 6.47911 15.5722 7.74417 14.0116 7.74417C12.4511 7.74417 11.186 6.47911 11.186 4.91859C11.186 3.35806 12.4511 2.09301 14.0116 2.09301C15.5722 2.09301 16.8372 3.35806 16.8372 4.91859Z" fill="#009A93"/>
<path d="M11.2558 15.4884C11.6797 15.4884 12.0233 15.1448 12.0233 14.7209C12.0233 14.2971 11.6797 13.9535 11.2558 13.9535C10.832 13.9535 10.4884 14.2971 10.4884 14.7209C10.4884 15.1448 10.832 15.4884 11.2558 15.4884Z" fill="#009A93"/>
<path fill-rule="evenodd" clip-rule="evenodd" d="M14.9535 14.7558C14.9535 16.8172 13.2824 18.4884 11.2209 18.4884C9.15949 18.4884 7.48837 16.8172 7.48837 14.7558C7.48837 12.6944 9.15949 11.0232 11.2209 11.0232C13.2824 11.0232 14.9535 12.6944 14.9535 14.7558ZM13.3488 14.7558C13.3488 15.931 12.3961 16.8837 11.2209 16.8837C10.0457 16.8837 9.09302 15.931 9.09302 14.7558C9.09302 13.5806 10.0457 12.6279 11.2209 12.6279C12.3961 12.6279 13.3488 13.5806 13.3488 14.7558Z" fill="#009A93"/>
<path d="M4.06977 6.97673C4.49361 6.97673 4.83721 6.63313 4.83721 6.20929C4.83721 5.78544 4.49361 5.44184 4.06977 5.44184C3.64592 5.44184 3.30232 5.78544 3.30232 6.20929C3.30232 6.63313 3.64592 6.97673 4.06977 6.97673Z" fill="#009A93"/>
<path fill-rule="evenodd" clip-rule="evenodd" d="M4.06977 9.76743C6.03487 9.76743 7.62791 8.17439 7.62791 6.20929C7.62791 4.24418 6.03487 2.65115 4.06977 2.65115C2.10466 2.65115 0.511627 4.24418 0.511627 6.20929C0.511627 8.17439 2.10466 9.76743 4.06977 9.76743ZM4.06977 8.30231C5.22571 8.30231 6.16279 7.36523 6.16279 6.20929C6.16279 5.05334 5.22571 4.11626 4.06977 4.11626C2.91382 4.11626 1.97674 5.05334 1.97674 6.20929C1.97674 7.36523 2.91382 8.30231 4.06977 8.30231Z" fill="#009A93"/>
</svg>
