<svg width="21" height="18" viewBox="0 0 21 18" fill="none" xmlns="http://www.w3.org/2000/svg">
<path d="M2.50538 0C2.05803 0 1.69538 0.362649 1.69538 0.81C1.69538 1.25735 2.05803 1.62 2.50538 1.62V2.3625H0.952882C0.505532 2.3625 0.142882 2.72515 0.142882 3.1725C0.142882 3.61985 0.505532 3.9825 0.952883 3.9825H19.5829C20.0302 3.9825 20.3929 3.61985 20.3929 3.1725C20.3929 2.72515 20.0302 2.3625 19.5829 2.3625H18.8376C18.8033 1.94673 18.455 1.62 18.0304 1.62H16.4779C16.0533 1.62 15.705 1.94673 15.6707 2.3625H5.67788V1.61723C6.09365 1.58293 6.42038 1.23462 6.42038 0.81C6.42038 0.362649 6.05773 0 5.61038 0H2.50538Z" fill="#009A93"/>
<path fill-rule="evenodd" clip-rule="evenodd" d="M0.952882 5.4675H19.5829V16.2675C20.0302 16.2675 20.3929 16.6301 20.3929 17.0775C20.3929 17.5249 20.0302 17.8875 19.5829 17.8875H0.952882C0.505532 17.8875 0.142882 17.5249 0.142882 17.0775C0.142882 16.6301 0.505532 16.2675 0.952882 16.2675V5.4675ZM5.61038 7.79625C5.61038 8.22496 5.26284 8.5725 4.83413 8.5725C4.40542 8.5725 4.05788 8.22496 4.05788 7.79625C4.05788 7.36754 4.40542 7.02 4.83413 7.02C5.26284 7.02 5.61038 7.36754 5.61038 7.79625ZM7.93913 8.5725C8.36784 8.5725 8.71538 8.22496 8.71538 7.79625C8.71538 7.36754 8.36784 7.02 7.93913 7.02C7.51042 7.02 7.16288 7.36754 7.16288 7.79625C7.16288 8.22496 7.51042 8.5725 7.93913 8.5725ZM11.8204 7.79625C11.8204 8.22496 11.4728 8.5725 11.0441 8.5725C10.6154 8.5725 10.2679 8.22496 10.2679 7.79625C10.2679 7.36754 10.6154 7.02 11.0441 7.02C11.4728 7.02 11.8204 7.36754 11.8204 7.79625ZM14.1491 8.5725C14.5778 8.5725 14.9254 8.22496 14.9254 7.79625C14.9254 7.36754 14.5778 7.02 14.1491 7.02C13.7204 7.02 13.3729 7.36754 13.3729 7.79625C13.3729 8.22496 13.7204 8.5725 14.1491 8.5725ZM18.0304 7.79625C18.0304 8.22496 17.6828 8.5725 17.2541 8.5725C16.8254 8.5725 16.4779 8.22496 16.4779 7.79625C16.4779 7.36754 16.8254 7.02 17.2541 7.02C17.6828 7.02 18.0304 7.36754 18.0304 7.79625ZM15.7016 10.8675C16.1303 10.8675 16.4779 10.52 16.4779 10.0913C16.4779 9.66254 16.1303 9.315 15.7016 9.315C15.2729 9.315 14.9254 9.66254 14.9254 10.0913C14.9254 10.52 15.2729 10.8675 15.7016 10.8675ZM13.3729 10.0913C13.3729 10.52 13.0253 10.8675 12.5966 10.8675C12.1679 10.8675 11.8204 10.52 11.8204 10.0913C11.8204 9.66254 12.1679 9.315 12.5966 9.315C13.0253 9.315 13.3729 9.66254 13.3729 10.0913ZM9.49163 10.8675C9.92034 10.8675 10.2679 10.52 10.2679 10.0913C10.2679 9.66254 9.92034 9.315 9.49163 9.315C9.06292 9.315 8.71538 9.66254 8.71538 10.0913C8.71538 10.52 9.06292 10.8675 9.49163 10.8675ZM7.16288 10.0913C7.16288 10.52 6.81534 10.8675 6.38663 10.8675C5.95792 10.8675 5.61038 10.52 5.61038 10.0913C5.61038 9.66254 5.95792 9.315 6.38663 9.315C6.81534 9.315 7.16288 9.66254 7.16288 10.0913ZM3.28163 10.8675C3.71034 10.8675 4.05788 10.52 4.05788 10.0913C4.05788 9.66254 3.71034 9.315 3.28163 9.315C2.85292 9.315 2.50538 9.66254 2.50538 10.0913C2.50538 10.52 2.85292 10.8675 3.28163 10.8675ZM5.61038 12.4538C5.61038 12.8825 5.26284 13.23 4.83413 13.23C4.40542 13.23 4.05788 12.8825 4.05788 12.4538C4.05788 12.025 4.40542 11.6775 4.83413 11.6775C5.26284 11.6775 5.61038 12.025 5.61038 12.4538ZM7.93913 13.23C8.36784 13.23 8.71538 12.8825 8.71538 12.4538C8.71538 12.025 8.36784 11.6775 7.93913 11.6775C7.51042 11.6775 7.16288 12.025 7.16288 12.4538C7.16288 12.8825 7.51042 13.23 7.93913 13.23ZM11.8204 12.4538C11.8204 12.8825 11.4728 13.23 11.0441 13.23C10.6154 13.23 10.2679 12.8825 10.2679 12.4538C10.2679 12.025 10.6154 11.6775 11.0441 11.6775C11.4728 11.6775 11.8204 12.025 11.8204 12.4538ZM14.1491 13.23C14.5778 13.23 14.9254 12.8825 14.9254 12.4538C14.9254 12.025 14.5778 11.6775 14.1491 11.6775C13.7204 11.6775 13.3729 12.025 13.3729 12.4538C13.3729 12.8825 13.7204 13.23 14.1491 13.23ZM18.0304 12.4538C18.0304 12.8825 17.6828 13.23 17.2541 13.23C16.8254 13.23 16.4779 12.8825 16.4779 12.4538C16.4779 12.025 16.8254 11.6775 17.2541 11.6775C17.6828 11.6775 18.0304 12.025 18.0304 12.4538ZM15.7016 15.525C16.1303 15.525 16.4779 15.1775 16.4779 14.7488C16.4779 14.32 16.1303 13.9725 15.7016 13.9725C15.2729 13.9725 14.9254 14.32 14.9254 14.7488C14.9254 15.1775 15.2729 15.525 15.7016 15.525ZM13.3729 14.7488C13.3729 15.1775 13.0253 15.525 12.5966 15.525C12.1679 15.525 11.8204 15.1775 11.8204 14.7488C11.8204 14.32 12.1679 13.9725 12.5966 13.9725C13.0253 13.9725 13.3729 14.32 13.3729 14.7488ZM9.49163 15.525C9.92034 15.525 10.2679 15.1775 10.2679 14.7488C10.2679 14.32 9.92034 13.9725 9.49163 13.9725C9.06292 13.9725 8.71538 14.32 8.71538 14.7488C8.71538 15.1775 9.06292 15.525 9.49163 15.525ZM7.16288 14.7488C7.16288 15.1775 6.81534 15.525 6.38663 15.525C5.95792 15.525 5.61038 15.1775 5.61038 14.7488C5.61038 14.32 5.95792 13.9725 6.38663 13.9725C6.81534 13.9725 7.16288 14.32 7.16288 14.7488ZM3.28163 15.525C3.71034 15.525 4.05788 15.1775 4.05788 14.7488C4.05788 14.32 3.71034 13.9725 3.28163 13.9725C2.85292 13.9725 2.50538 14.32 2.50538 14.7488C2.50538 15.1775 2.85292 15.525 3.28163 15.525Z" fill="#009A93"/>
</svg>
