<svg width="20" height="20" viewBox="0 0 20 20" fill="none" xmlns="http://www.w3.org/2000/svg">
<path fill-rule="evenodd" clip-rule="evenodd" d="M2.73136 9.15252C1.63512 8.29707 0.930229 6.96345 0.930229 5.46519C0.930229 2.88358 3.02304 0.790771 5.60465 0.790771C7.18078 0.790771 8.57471 1.57084 9.42144 2.76596L18.3687 13.6478L18.3673 13.6489C18.8501 14.243 19.1395 15.0005 19.1395 15.8257C19.1395 17.733 17.5934 19.2791 15.686 19.2791C14.7667 19.2791 13.9312 18.9199 13.3123 18.3341L2.73136 9.15252ZM5.60465 8.88379C7.49269 8.88379 9.02325 7.35323 9.02325 5.46519C9.02325 4.74464 8.80033 4.07616 8.41969 3.52495L8.36382 3.457L8.36865 3.45303C7.74698 2.60054 6.74051 2.04659 5.60465 2.04659C3.7166 2.04659 2.18604 3.57715 2.18604 5.46519C2.18604 6.5444 2.68612 7.5068 3.46719 8.13333L3.46966 8.13048L3.527 8.18023C4.10283 8.62154 4.82311 8.88379 5.60465 8.88379ZM12.2337 15.7354L5.78125 10.1363C8.17816 10.0473 10.1138 8.15355 10.269 5.77413L15.6941 12.3722C15.6914 12.3722 15.6887 12.3722 15.686 12.3722C13.8089 12.3722 12.2816 13.8698 12.2337 15.7354ZM14.2818 17.5163L14.2836 17.5142L14.1582 17.4054C13.7452 17.0058 13.4884 16.4457 13.4884 15.8257C13.4884 14.6119 14.4723 13.628 15.686 13.628C16.8998 13.628 17.8837 14.6119 17.8837 15.8257C17.8837 17.0394 16.8998 18.0233 15.686 18.0233C15.1521 18.0233 14.6626 17.8329 14.2818 17.5163Z" fill="#009A93"/>
</svg>
