<svg width="22" height="21" viewBox="0 0 22 21" fill="none" xmlns="http://www.w3.org/2000/svg">
<path fill-rule="evenodd" clip-rule="evenodd" d="M11.9767 0.0231934H9.95349V10.1875C8.81266 10.6122 8 11.7112 8 12.9999C8 14.6568 9.34315 15.9999 11 15.9999C12.6569 15.9999 14 14.6568 14 12.9999C14 11.685 13.1541 10.5677 11.9767 10.1625V8.04645H14V6.02319H11.9767V3.99994H14V1.97668H11.9767V0.0231934ZM11.9767 12.9999C11.9767 13.5394 11.5394 13.9767 11 13.9767C10.4606 13.9767 10.0233 13.5394 10.0233 12.9999C10.0233 12.4605 10.4606 12.0232 11 12.0232C11.5394 12.0232 11.9767 12.4605 11.9767 12.9999Z" fill="#009A93"/>
<path d="M7.02326 12.9667C6.37141 13.5922 5.48642 13.9767 4.51163 13.9767C3.53684 13.9767 2.65185 13.5922 2 12.9667V14.9899C2.65185 15.6155 3.53684 15.9999 4.51163 15.9999C5.48642 15.9999 6.37141 15.6155 7.02326 14.9899V12.9667Z" fill="#009A93"/>
<path d="M3.46512 17.9867C4.43991 17.9867 5.3249 17.6022 5.97675 16.9767C6.6286 17.6022 7.51359 17.9867 8.48838 17.9867C9.46316 17.9867 10.3482 17.6022 11 16.9767C11.6519 17.6022 12.5368 17.9867 13.5116 17.9867C14.4864 17.9867 15.3714 17.6022 16.0233 16.9767C16.6751 17.6022 17.5601 17.9867 18.5349 17.9867C19.5097 17.9867 20.3947 17.6022 21.0465 16.9767V18.9999C20.3947 19.6255 19.5097 20.0099 18.5349 20.0099C17.5601 20.0099 16.6751 19.6255 16.0233 18.9999C15.3714 19.6255 14.4864 20.0099 13.5116 20.0099C12.5368 20.0099 11.6519 19.6255 11 18.9999C10.3482 19.6255 9.46316 20.0099 8.48838 20.0099C7.51359 20.0099 6.6286 19.6255 5.97675 18.9999C5.3249 19.6255 4.43991 20.0099 3.46512 20.0099C2.49033 20.0099 1.60534 19.6255 0.953491 18.9999V16.9767C1.60534 17.6022 2.49033 17.9867 3.46512 17.9867Z" fill="#009A93"/>
<path d="M17.4884 14.0099C18.4632 14.0099 19.3482 13.6255 20 12.9999V15.0232C19.3482 15.6487 18.4632 16.0332 17.4884 16.0332C16.5136 16.0332 15.6286 15.6487 14.9767 15.0232V12.9999C15.6286 13.6255 16.5136 14.0099 17.4884 14.0099Z" fill="#009A93"/>
</svg>
