<svg width="18" height="12" viewBox="0 0 18 12" fill="none" xmlns="http://www.w3.org/2000/svg">
<path d="M16.5381 7.66653C16.6429 7.78202 17.5622 8.84382 17.5622 9.92176C17.5622 10.4059 17.304 10.8531 16.8848 11.0951C16.4657 11.337 15.9491 11.337 15.5301 11.0951C15.1108 10.8531 14.8526 10.4059 14.8526 9.92176C14.8526 8.84665 15.7719 7.77131 15.8768 7.66653C15.963 7.57615 16.0824 7.52515 16.2073 7.52515C16.3324 7.52515 16.4518 7.57615 16.5381 7.66653H16.5381ZM17.5757 3.99736L17.5755 3.99755C17.66 4.23117 17.5734 4.49238 17.3659 4.62922L10.3233 9.25523C10.2355 9.31297 10.1328 9.34391 10.0276 9.34391H9.94435L3.04435 8.26881C2.90317 8.24687 2.77623 8.16962 2.69204 8.05412C2.60786 7.93862 2.57298 7.79443 2.59548 7.65324L2.67873 7.11569L0.633116 4.44382L0.633304 4.44363C0.467929 4.23045 0.388993 3.96286 0.411865 3.69402C0.43474 3.42533 0.557742 3.17485 0.756678 2.99259C0.955427 2.81034 1.21549 2.70947 1.48532 2.71003L3.36687 2.66428L3.40981 2.3954H3.41C3.43268 2.25515 3.50993 2.12953 3.62506 2.04609C3.74 1.96097 3.884 1.92516 4.02556 1.94653L6.9502 2.40347L7.03083 1.89534L6.41787 1.80122V1.8014C6.12087 1.75622 5.91684 1.47872 5.96224 1.18192C6.00743 0.884917 6.28493 0.680893 6.58173 0.726291L7.72418 0.903666L8.86922 1.08104C9.16622 1.1041 9.38819 1.36341 9.36515 1.6604C9.34209 1.95721 9.08278 2.17923 8.78599 2.15634H8.70273L8.08978 2.05959L8.01178 2.56771L10.9229 3.01921V3.01903C11.0641 3.04096 11.191 3.11821 11.2752 3.23371C11.3594 3.34922 11.3943 3.4934 11.3717 3.63459L11.2724 4.26363L17.0113 3.6535C17.2578 3.62257 17.4935 3.76488 17.5811 3.99757L17.5757 3.99736ZM3.20543 3.7448L1.48511 3.78248L2.89621 5.64791L3.20543 3.7448Z" fill="#009A93"/>
</svg>
