<svg width="18" height="18" viewBox="0 0 18 18" fill="none" xmlns="http://www.w3.org/2000/svg">
<path fill-rule="evenodd" clip-rule="evenodd" d="M17.2361 4.05994L16.6101 3.43386C16.933 3.36912 17.2428 3.21166 17.4921 2.96136C18.1687 2.28467 18.1699 1.18378 17.4921 0.507084C16.8154 -0.169608 15.7146 -0.168448 15.0391 0.507084C14.7888 0.757382 14.6302 1.06736 14.5654 1.38913L13.9394 0.763057C13.6361 0.458764 13.1593 0.443486 12.8769 0.727578L11.721 1.88247C11.4364 2.16592 11.4527 2.6419 11.7565 2.9462L12.1828 3.37259L11.6179 3.93728L10.7882 3.60321C10.5346 3.50195 10.2234 3.63532 10.0941 3.90077C9.994 4.10497 10.0293 4.32938 10.1678 4.46777C10.2083 4.50934 10.2589 4.54261 10.3151 4.56566L15.1138 6.49732C15.5644 6.62616 15.9598 6.43828 16.1167 6.27849L17.2726 5.1236C17.5557 4.84002 17.5405 4.36417 17.2361 4.05986L17.2361 4.05994ZM16.6681 1.33115C16.8903 1.55387 16.8903 1.9145 16.6681 2.13786C16.4459 2.36005 16.0847 2.35889 15.8626 2.13786C15.6404 1.91514 15.6404 1.55451 15.8626 1.33115C16.0848 1.10896 16.4464 1.10896 16.6681 1.33115Z" fill="#009A93"/>
<path d="M7.73622 13.5616L7.30985 13.1341L7.81329 12.6318L8.64402 12.967C8.89547 13.0683 9.20649 12.9349 9.33583 12.6695C9.46634 12.4045 9.36794 12.107 9.1148 12.0034L8.63391 11.8099L9.74264 10.7011L6.25691 9.29817L5.14881 10.407L4.31858 10.0729C3.90852 9.90015 3.55647 10.0476 3.37585 10.2276L2.60518 10.9977C2.32227 11.2811 2.33858 11.7571 2.6417 12.0602L5.93852 15.3582C6.24345 15.6615 6.71761 15.6778 7.00105 15.3942L7.77224 14.6242C8.05632 14.3407 8.03949 13.8661 7.73625 13.5616L7.73622 13.5616Z" fill="#009A93"/>
<path d="M5.85507 8.7813C5.71679 8.64287 5.68079 8.41847 5.78088 8.21311C5.91141 7.94714 6.22127 7.81544 6.47324 7.91774L7.30396 8.25078L8.41492 7.13977L11.9006 8.54275L10.7897 9.65375L11.2701 9.84837C11.5232 9.9508 11.6228 10.2472 11.4922 10.5133C11.3629 10.7787 11.0519 10.9121 10.8004 10.8097L6.00242 8.87803C5.94506 8.85614 5.89612 8.82183 5.85507 8.7813Z" fill="#009A93"/>
<path d="M10.551 5.005L9.46095 6.09399L8.63022 5.75992C8.3776 5.65866 8.06775 5.79087 7.93725 6.05631C7.83599 6.26168 7.87367 6.48608 8.01209 6.62451C8.05262 6.66504 8.10207 6.69819 8.15944 6.72124L12.9568 8.6529C13.2082 8.75532 13.5193 8.62195 13.6486 8.35651C13.7791 8.09158 13.6795 7.79504 13.4276 7.69158L12.9467 7.49696L14.0368 6.40681L10.551 5.005Z" fill="#009A93"/>
<path fill-rule="evenodd" clip-rule="evenodd" d="M1.29835 14.5877L2.73997 12.7859L5.21393 15.2599L3.41223 16.7016C3.33688 16.9912 3.18785 17.2664 2.96113 17.4925C2.28434 18.1692 1.18416 18.1692 0.507496 17.4925C-0.169696 16.8158 -0.168635 15.7161 0.507496 15.0394C0.734188 14.8116 1.00805 14.6636 1.29835 14.5877ZM1.33149 15.8627C1.10931 16.0849 1.10931 16.4461 1.33149 16.6683C1.55418 16.8905 1.91531 16.8905 2.1375 16.6683C2.35968 16.4461 2.35917 16.0849 2.1375 15.8627C1.91531 15.6405 1.5542 15.6405 1.33149 15.8627Z" fill="#009A93"/>
</svg>
