<svg width="1920" height="987" viewBox="0 0 1920 987" fill="none" xmlns="http://www.w3.org/2000/svg">
<path opacity="0.3" d="M1952.61 706.642C1926.85 710.605 1901.52 714.708 1876.62 718.954C1799.88 721.071 1730.39 723.197 1662.69 725.277C1613.83 726.774 1566.98 728.216 1520.73 729.538C1558.94 718.982 1597.62 709.193 1636.74 700.172C1733.72 694.94 1838.41 690.31 1952.7 687.398V686.474C1840.5 689.33 1737.56 693.868 1642.03 698.97C1695.13 686.843 1748.89 676.174 1803.32 666.961C1856.3 663.976 1906.27 661.804 1952.68 660.62V659.696C1908.7 660.815 1861.51 662.83 1811.61 665.575C1858.75 657.724 1906.21 651.004 1954 645.415L1953.89 644.491C1903.34 650.401 1853.11 657.579 1803.18 666.028C1738.03 669.725 1668.34 674.587 1595.15 680.355C1631.74 671.019 1668.17 662.278 1704.46 654.132C1811.95 644.602 1892.72 639.648 1952.65 637.272V636.348C1880.53 639.195 1798.91 644.861 1711.65 652.514C1760.52 641.644 1808.84 631.92 1856.15 623.435C1890.06 621.06 1922.3 619.248 1952.69 618.028V617.103C1924.85 618.222 1895.44 619.876 1864.62 621.928C1894.34 616.678 1923.59 611.937 1952.39 607.703L1952.25 606.779C1920.82 611.407 1888.76 616.644 1856.09 622.492C1787.93 627.271 1713.05 634.333 1632.97 643.465C1668.25 634.804 1702.18 626.901 1734.36 619.849C1811.97 609.866 1885.53 602.582 1952.76 599.014V598.09C1888.52 601.501 1818.49 608.304 1744.73 617.612C1795.37 606.668 1841.5 597.915 1881.5 591.731C1906.34 589.494 1930.12 587.772 1952.84 586.564V585.64C1930.21 586.872 1906.51 588.585 1881.74 590.779H1881.45C1828.1 595.579 1769.94 602.715 1706.97 612.186V612.131L1693.59 614.229C1686.43 615.332 1679.22 616.463 1671.95 617.621C1657.05 619.926 1641.95 622.437 1626.65 625.154C1559.57 636.591 1487.92 650.351 1411.71 666.434C1385.03 672.073 1357.75 677.998 1329.88 684.209C1248.69 696.567 1164.78 710.386 1079.27 725.526C1067.32 727.147 1055.42 728.761 1043.59 730.37L964.805 737.903C947.385 737.903 930.123 737.903 913.277 737.81C888.289 735.062 862.853 732.366 836.97 729.723C829.934 728.678 822.686 727.578 815.122 726.395L814.503 726.275C806.08 723.835 797.638 721.367 789.123 718.88L777.815 715.128C772.508 712.188 767.268 709.264 762.097 706.356C711.087 659.557 663.267 611.826 616.751 565.379C597.445 546.107 579.212 527.897 560.693 509.688C274.42 228.178 84.8966 3.85441 83.7039 2.3108L82.9734 2.86548C84.1569 4.41834 273.736 228.797 560.064 510.317C578.556 528.526 596.807 546.735 616.113 566.007C658.736 608.526 702.451 652.2 748.709 695.208C350.153 340.196 30.2994 5.66601 27.1003 2.23678L26.4346 2.87473C29.6799 6.27623 351.808 343.274 752.398 699.738C746.739 695.424 741.075 691.018 735.404 686.52C710.625 665.538 686.345 644.325 662.869 623.805C639.755 603.571 615.771 582.654 592.166 562.689C511.726 494.696 434.412 425.52 366.158 364.487L346.242 346.666C125.532 149.426 -21.8848 3.74343 -23.3549 2.24603L-24.002 2.91152C-22.5411 4.35346 124.904 150.1 345.623 347.359L365.548 365.171C433.801 426.176 511.162 495.389 591.574 563.391C615.17 583.347 638.044 603.34 662.259 624.498C679.928 639.943 698.05 655.777 716.496 671.638C701.832 660.177 686.123 648.105 669.776 635.59C633.329 607.583 595.633 578.615 566.749 554.185C530.773 523.756 488.269 489.178 447.18 455.736C387.322 407.033 325.42 356.667 281.419 317.337C258.942 297.252 236.817 278.858 215.403 261.056C198.529 247.034 182.589 233.779 167.417 220.487C11.5671 83.9837 -83.1483 3.10575 -84.0729 2.34781L-84.674 3.0503C-83.7494 3.85446 10.9475 84.7232 166.816 221.19C181.997 234.491 197.947 247.745 214.83 261.777C236.225 279.57 258.35 297.964 280.818 318.04C324.838 357.379 386.74 407.754 446.607 456.466C487.696 489.908 530.19 524.477 566.157 554.906C595.06 579.345 632.728 608.313 669.221 636.339C692.826 654.474 715.128 671.611 734.868 687.324C738.566 690.439 742.264 693.471 745.907 696.456L731.77 687.213C725.427 682.481 719.035 677.551 712.594 672.424C674.871 642.337 598.453 587.47 542.654 547.41C522.858 533.194 505.753 520.919 492.938 511.592C359.02 414.16 195.219 281.76 50.7419 164.973C-23.5954 104.892 -93.8181 48.1108 -155.054 0L-155.627 0.730249C-94.4007 48.7949 -24.1778 105.594 50.1595 165.694C194.674 282.509 358.456 414.918 492.393 512.369C505.208 521.695 522.313 533.97 542.118 548.186C597.908 588.246 674.335 643.105 712.021 673.173C714.826 675.41 717.621 677.603 720.407 679.754C382.875 457.769 88.4471 254.835 -232.942 2.33856L-233.515 3.05955C91.4982 258.403 388.921 463.066 731.234 687.98C733.12 689.398 735.006 690.793 736.892 692.167L719.205 682.074L716.191 680.355C538.752 579.031 361.646 471.218 189.783 359.893C15.0344 246.701 -159.714 126.391 -329.479 2.3293L-330.033 3.0688C-160.213 127.149 14.5072 247.459 189.283 360.669C361.156 472.004 538.28 579.826 715.738 681.159L718.752 682.878C727.018 687.598 735.339 692.349 743.716 697.131C746.181 698.881 748.619 700.603 751.03 702.298C734.775 693.499 708.72 679.846 676.988 663.218C618.886 632.715 539.316 591.065 476.176 555.997C177.791 390.414 -171.835 177.137 -427.153 21.4072L-458.524 2.27379L-459.005 3.0688L-427.634 22.2022C-172.344 177.932 177.282 391.218 475.695 556.801C538.844 591.851 618.415 633.519 676.526 664.022C713.879 683.599 743.392 699.072 758.251 707.317L758.352 707.373L759.36 708.066C754.284 705.912 751.15 704.507 750.068 703.906C746.425 701.882 739.158 698.758 731.465 695.44C726.583 693.341 721.526 691.169 716.93 689.071C703.625 683.026 687.602 675.862 669.046 667.553C593.506 633.75 490.044 587.442 422.05 551.033C296.536 483.807 145.236 403.068 -1.09058 324.991C-221.569 207.343 -449.519 85.6936 -604.314 2.28304L-604.758 3.09656C-449.99 86.5072 -221.976 208.157 -1.52533 325.804C144.801 403.881 296.102 484.621 421.615 551.847C489.638 588.274 593.118 634.582 668.667 668.403C687.223 676.722 703.246 683.876 716.542 689.912C721.165 692.01 726.213 694.192 731.095 696.29C738.769 699.59 746.018 702.76 749.587 704.711C750.798 705.385 754.58 707.068 760.784 709.683L756.577 708.315C753.359 707.271 751.27 706.596 750.29 706.263C706.048 691.141 461.049 589.485 359.03 543.925C225.037 484.075 44.3162 397.402 -147.019 305.636C-390.779 188.728 -642.833 67.8358 -799.783 2.26454L-800.143 3.11484C-643.175 68.6768 -391.131 189.559 -147.38 306.467C43.9554 398.234 224.686 484.917 358.687 544.766C460.725 590.335 705.771 692.01 750.031 707.132C751.011 707.474 753.101 708.149 756.327 709.193L757.252 709.508C649.407 676.925 528.813 634.638 424.398 597.425C267.781 541.503 106.662 474.139 -49.1602 408.984C-87.4014 392.993 -126.956 376.457 -165.853 360.337C-239.698 329.723 -313.483 299.162 -387.21 268.654C-583.853 187.239 -787.19 103.062 -982.593 21.4442L-982.954 22.2945C-787.541 103.912 -584.204 188.099 -387.562 269.513C-313.878 300.016 -240.095 330.574 -166.214 361.187C-127.307 377.316 -87.7621 393.853 -49.5117 409.843C106.31 474.989 267.448 542.363 424.084 598.294C531.873 636.773 656.943 680.558 767.423 713.538L768.347 714.148L768.967 714.619L772.85 717.974C763.937 715.959 754.968 713.769 745.944 711.31L726.851 706.125C617.888 676.546 482.287 639.657 372.038 604.071C-59.747 464.665 -578.842 280.744 -982.602 124.071L-982.935 124.931C-579.165 281.612 -60.0796 465.543 371.752 604.949C481.917 640.433 617.555 677.286 726.528 706.864L745.621 712.059C755.236 714.675 764.797 716.985 774.283 719.102L775.106 719.805C645.496 697.362 391.399 637.244 272.524 605.485C-35.2544 523.22 -502.877 391.496 -982.704 230.821L-983 231.699C-503.136 392.383 -35.5132 524.135 272.293 606.381C391.64 638.261 647.336 698.749 776.502 720.997L779.23 723.271L779.905 723.881C771.454 722.79 762.531 721.515 753.286 720.184C740.776 718.335 727.841 716.486 713.759 714.776C496.729 687.971 189.625 629.896 -150.995 551.218C-455.547 480.868 -766.47 398.428 -982.714 330.694L-982.991 331.618C-766.728 399.362 -455.778 481.802 -151.198 552.161C189.44 630.848 496.581 688.96 713.648 715.765C727.711 717.503 740.646 719.37 753.156 721.173C762.883 722.578 772.267 723.946 781.116 725.055C782.632 726.423 784.173 727.788 785.739 729.149L768.828 727.763C685.383 720.914 463.712 702.714 356.847 688.331C87.3929 652.07 -131.875 617.658 -333.214 580.066C-573.609 535.172 -786.025 485.979 -982.677 429.661L-982.935 430.585C-786.247 486.913 -573.775 536.115 -333.38 581.009C-132.032 618.61 87.2544 653.013 356.718 689.284C463.61 703.666 685.3 721.866 768.754 728.715L786.885 730.212L793.117 735.758L791.268 735.684C775.328 735.047 749.911 734.381 717.744 733.54C574.182 729.778 306.966 722.772 50.1874 699.239C-174.951 678.608 -359.814 656.073 -531.576 628.334C-704.568 600.392 -850.626 569.178 -982.695 539.599L-982.898 540.524C-850.82 570.102 -704.744 601.27 -531.697 629.258C-359.907 656.988 -175.034 679.541 50.1318 700.181C306.901 723.715 574.145 730.684 717.689 734.483C749.855 735.324 775.254 735.989 791.194 736.627L794.217 736.738L795.863 738.208L800.791 742.543H799.515C773.525 741.517 715.331 743.846 634.79 747.063C450.925 754.457 173.066 765.549 -79.2003 752.452C-304.071 740.787 -456.758 728.715 -589.752 712.105C-717.244 696.188 -820.688 676.925 -963.861 650.277L-982.714 646.765L-982.88 647.689L-964.037 651.192C-820.845 677.85 -717.392 697.113 -589.872 713.039C-456.851 729.676 -304.172 741.692 -79.2465 753.385C5.37231 757.776 92.839 759.439 178.715 759.439C348.84 759.439 512.632 752.886 634.845 747.996C715.368 744.78 773.534 742.45 799.497 743.476L801.91 743.569L812.08 752.489C712.354 761.732 607.523 771.067 492.254 780.958C301.002 797.364 122.712 808.567 -52.8033 815.157C-211.177 821.147 -348.008 820.648 -483.433 813.605C-648.195 805.027 -811.497 786.605 -982.714 757.277L-982.871 758.201C-811.664 787.539 -648.325 805.97 -483.525 814.584C-410.482 818.393 -336.977 820.287 -259.931 820.287C-194.155 820.287 -125.763 818.901 -52.8218 816.146C122.722 809.519 301.02 798.316 492.291 781.947C607.865 772.029 713.001 762.665 812.986 753.385L822.556 761.787C780.533 767.934 739.019 774.534 698.827 780.921C631.84 791.569 562.579 802.577 490.266 811.58C429.502 819.141 364.318 828.218 301.279 836.916C178.308 853.96 51.1859 871.587 -60.616 880.95C-191.178 891.894 -333.547 902.127 -489.951 902.885C-658.144 903.698 -819.338 893.207 -982.76 870.801L-982.889 871.726C-825.554 893.31 -666.92 904.045 -508.11 903.855C-502.07 903.855 -496.029 903.855 -489.988 903.855C-333.547 903.097 -191.15 892.865 -60.579 881.921C51.2506 872.548 178.401 854.922 301.372 837.877C364.401 829.133 429.585 820.102 490.35 812.542C562.671 803.539 631.942 792.53 698.938 781.882C739.38 775.412 781.144 768.812 823.425 762.638L834.104 772.001L824.96 773.85C738.372 791.218 650.6 809.778 565.722 827.719C355.839 872.086 138.819 917.979 -87.2537 951.8C-210.53 970.24 -357.707 990.224 -514.629 998.598C-680.963 1007.48 -834.085 1002.05 -982.769 981.96L-982.889 982.884C-880.148 996.749 -775.29 1003.61 -665.411 1003.61C-616.229 1003.61 -565.953 1002.23 -514.582 999.485C-357.623 991.102 -210.391 971.118 -87.1148 952.678C138.985 918.857 356.025 872.964 565.917 828.588C650.794 810.647 738.557 792.086 825.145 774.718L834.983 772.75L848.851 784.877L842.61 786.208L833.873 788.056C679.466 821.11 513.132 867.15 352.298 911.666C201.858 953.315 46.2578 996.37 -99.5783 1028.84C-278.487 1068.66 -524.133 1110.03 -772.442 1110.03C-842.813 1110.03 -913.443 1106.71 -982.778 1099.08L-982.88 1100C-913.48 1107.64 -842.878 1110.97 -772.442 1110.97C-524.087 1110.97 -278.312 1069.58 -99.338 1029.75C46.5537 997.276 202.126 954.212 352.585 912.571C513.4 868.056 679.697 821.988 834.104 788.971L842.842 787.123L849.758 785.644C855.089 790.302 860.415 794.943 865.735 799.564C855.465 802.319 845.131 805.092 834.733 807.883C684.949 848.294 523.284 902.164 366.889 954.286C203.587 1008.7 34.7282 1064.97 -123.35 1106.99C-344.512 1165.78 -674.232 1241.99 -982.778 1225.07L-982.834 1225.99C-952.877 1227.64 -922.335 1228.46 -891.207 1228.46C-784.573 1228.46 -670.349 1218.81 -544.742 1199.28C-418.609 1179.67 -280.697 1149.77 -123.128 1107.88C34.9778 1065.86 203.845 1009.59 367.166 955.164C523.524 903.06 685.226 849.172 834.936 808.77C845.551 805.905 856.085 803.074 866.539 800.276C872.789 805.711 879.024 811.118 885.244 816.498C836.915 832.646 787.856 849.533 737.577 867.178C588.31 919.578 442.243 976.534 300.983 1031.62C74.7722 1119.83 -138.892 1203.16 -351.53 1263.41C-465.533 1295.7 -569.152 1318.5 -668.315 1333.09C-778.97 1349.37 -881.84 1355.19 -982.806 1350.87V1351.8C-961.374 1352.72 -939.837 1353.18 -918.195 1353.18C-837.756 1353.18 -755.365 1346.84 -668.139 1334.01C-568.939 1319.4 -465.283 1296.6 -351.234 1264.29C-138.578 1204.04 75.1235 1120.71 301.353 1032.48C442.603 977.403 588.661 920.437 737.919 868.056C788.374 850.346 837.599 833.404 886.094 817.219C894.378 824.391 902.647 831.515 910.901 838.589L897.309 843.663C740.84 902.238 571.483 977.385 392.185 1056.94C162.71 1158.75 -74.5681 1263.99 -309.027 1345.25C-575.208 1437.46 -795.594 1482.98 -982.797 1484.54V1485.46C-883.754 1484.66 -773.496 1471.26 -655.102 1445.62C-548.94 1422.63 -435.64 1390.08 -308.731 1346.12C-74.2352 1264.89 163.062 1159.61 392.546 1057.74C571.834 978.189 741.182 903.051 897.624 844.486L911.696 839.227C920.646 846.898 929.584 854.515 938.509 862.076C918.464 870.265 899.538 878.279 881.906 886.108C695.868 968.465 528.618 1048.15 384.798 1122.97C366.029 1132.73 347.195 1142.53 328.296 1152.39C109.491 1266.4 -116.767 1384.3 -339.261 1474.28C-459.513 1522.91 -567.22 1558.86 -668.527 1584.18C-782.863 1612.75 -885.65 1627.03 -982.751 1627.82V1628.74C-885.576 1627.96 -782.724 1613.67 -668.315 1585.08C-566.961 1559.74 -459.218 1523.79 -338.919 1475.14C-116.351 1385.14 109.925 1267.23 328.758 1153.21C347.651 1143.35 366.482 1133.54 385.251 1123.79C529.053 1048.98 696.284 969.297 882.303 886.959C900.065 879.093 919.13 871.014 939.332 862.769C951.37 872.974 963.39 883.079 975.391 893.087C961.553 899.187 947.777 905.349 934.062 911.573C709.913 1013.34 505.032 1129.81 288.113 1253.14C198.122 1304.3 105.043 1357.2 10.5777 1408.94C-95.0294 1466.74 -328.397 1589.47 -456.093 1640.14L-455.75 1641C-328.027 1590.31 -94.5671 1467.58 11.0215 1409.74C105.515 1357.97 198.575 1305.08 288.566 1253.92C505.467 1130.63 710.329 1014.16 934.33 912.174C948.181 905.87 962.096 899.64 976.076 893.484C988.126 903.51 1000.15 913.434 1012.13 923.257C724.9 1061.69 467.438 1221.27 173.759 1403.29C51.4077 1479.09 -75.1045 1557.55 -212.98 1640.18L-212.499 1640.97C-74.6237 1558.34 51.9348 1479.92 174.249 1404.08C468.039 1221.99 725.575 1062.36 1012.93 923.894C1029.67 937.556 1046.41 950.992 1063.16 964.204C1036.55 976.46 1009.74 989.244 982.724 1002.55C884.402 1050.97 781.754 1107.09 668.898 1174.13C556.495 1240.9 445.941 1313.36 328.897 1390.07C205.464 1470.98 77.8698 1554.65 -64.8876 1640.18L-64.416 1640.97C78.3228 1555.44 205.963 1471.77 329.406 1390.85C446.441 1314.13 556.985 1241.68 669.369 1174.92C782.17 1107.9 884.8 1051.79 983.13 1003.39C1010.35 989.983 1037.31 977.135 1064.01 964.842C1172.97 1050.66 1282.93 1126.77 1401.75 1189.37C1500.75 1241.52 1588.52 1278.95 1670.01 1303.82C1754.15 1329.49 1831.81 1342.13 1905.95 1342.13C1921.69 1342.13 1937.27 1341.56 1952.71 1340.42L1952.65 1339.5C1864.54 1345.97 1772.17 1334.01 1670.29 1302.93C1588.82 1278.08 1501.09 1240.66 1402.16 1188.55C1283.53 1126.05 1173.72 1050.06 1064.93 964.398C1070.72 961.742 1076.49 959.105 1082.26 956.486C1189.76 1031.15 1294.91 1095.67 1395.97 1148.9C1485.43 1196.04 1576.71 1232.28 1667.26 1256.66C1755.09 1280.31 1840.69 1292.25 1922.08 1292.25C1932.34 1292.25 1942.54 1292.07 1952.67 1291.69V1290.77C1862.33 1294.16 1766.39 1282.38 1667.52 1255.76C1577.04 1231.41 1485.83 1195.17 1396.43 1148.09C1295.55 1094.94 1190.58 1030.55 1083.27 956.042C1088.99 953.454 1094.7 950.888 1100.41 948.343C1195.64 1008.55 1285.08 1059.26 1371.61 1102.17C1462.54 1147.11 1557.86 1182.59 1656.06 1208.04C1751.07 1232.45 1840.64 1244.82 1922.86 1244.82C1932.92 1244.82 1942.86 1244.63 1952.7 1244.26V1243.34C1862.57 1246.72 1762.86 1234.57 1656.32 1207.2C1558.18 1181.76 1462.92 1146.31 1372.04 1101.39C1285.71 1058.6 1196.43 1008.04 1101.45 947.954C1107.66 945.194 1113.85 942.461 1120.03 939.756C1184.11 976.266 1249.25 1009.92 1325.76 1046.35C1421.87 1091.95 1522.05 1128.47 1624.96 1155.42C1733.69 1183.69 1835.49 1197.94 1928.03 1197.94C1936.33 1197.94 1944.56 1197.82 1952.72 1197.59V1196.67C1853.79 1199.44 1743.62 1185.27 1625.22 1154.48C1522.36 1127.55 1422.25 1091.06 1326.18 1045.5C1249.93 1009.19 1184.98 975.647 1121.13 939.275C1128.32 936.132 1135.51 933.027 1142.69 929.958C1192.21 954.979 1241.7 978.226 1296.6 1002.43C1468.18 1078.08 1724.3 1151.31 1924.46 1151.31C1934.02 1151.31 1943.45 1151.14 1952.75 1150.81V1149.88C1749.12 1157.37 1476.68 1080.81 1297 1001.58C1242.38 977.551 1193.11 954.36 1143.82 929.486C1151.84 926.066 1159.85 922.677 1167.86 919.319C1287.01 972.301 1399.48 1013.6 1503.97 1042.67C1649.91 1083.26 1799.24 1105.77 1919.88 1105.77C1931.12 1105.77 1942.07 1105.58 1952.82 1105.19V1104.27C1827.18 1108.89 1663.69 1086.11 1504.25 1041.78C1400.03 1012.8 1287.89 971.626 1169.07 918.848C1178.49 914.922 1187.91 911.056 1197.31 907.247C1283.11 940.199 1377.38 972.874 1472.53 999.3C1548.13 1020.32 1635.48 1037.2 1725.12 1048.09C1793.54 1056.4 1860.35 1060.79 1917.25 1060.79C1929.61 1060.79 1941.51 1060.58 1952.84 1060.16V1059.23C1889.33 1061.57 1808.52 1057.28 1725.26 1047.16C1635.66 1036.27 1548.36 1019.43 1472.84 998.404C1378.06 972.042 1284.15 939.552 1198.63 906.73C1208.86 902.601 1219.08 898.528 1229.3 894.51C1326.39 924.597 1422.49 949.443 1516.18 968.604C1669.17 999.901 1816.1 1016.09 1952.89 1016.72V1015.8C1816.15 1015.16 1669.28 998.986 1516.35 967.735C1423.05 948.648 1327.32 923.931 1230.65 894.011C1241.89 889.63 1253.13 885.316 1264.36 881.071C1462.86 932.176 1701.97 974.205 1952.85 974.861V973.937C1702.59 973.281 1464.05 931.418 1265.88 880.498C1272.45 878.033 1279.03 875.586 1285.62 873.159C1291.6 870.959 1297.59 868.777 1303.59 866.614L1310.07 867.955C1523.98 911.398 1735.26 933.415 1938.33 933.415C1943.16 933.415 1948.01 933.415 1952.84 933.415V932.491C1745.39 933.563 1529.2 911.555 1310.24 867.086L1305.2 866.05C1320.61 860.505 1336.07 855.097 1351.58 849.829C1538.35 878.917 1728.06 893.105 1930.27 893.105C1937.76 893.105 1945.3 893.105 1952.83 893.05V892.126C1742.83 893.207 1546.52 879.185 1353.49 849.182C1373.12 842.514 1392.91 836.044 1412.84 829.771C1576.28 846.852 1744.54 855.134 1922.7 855.134C1932.7 855.134 1942.78 855.134 1952.84 855.051V854.127C1764.29 855.107 1587.01 846.963 1415.06 829.068C1438.49 821.711 1462.13 814.591 1485.98 807.707C1610.36 814.51 1744.27 817.672 1894.52 817.672C1913.68 817.672 1933.12 817.619 1952.84 817.514V816.59C1779.73 817.514 1628.2 814.492 1488.7 806.931C1520.04 797.934 1551.9 789.344 1584.28 781.161C1635.28 781.716 1686.85 781.971 1739 781.928C1809.27 781.928 1880.59 781.558 1952.84 781.189V780.264C1828.2 780.902 1706.39 781.531 1587.8 780.264C1625.19 770.855 1663.4 761.92 1702.45 753.459C1770.75 752.054 1842.4 750.224 1919.86 748.246L1952.84 747.405V746.48L1919.86 747.322C1844.21 749.253 1774.09 751.019 1707.21 752.442C1761.76 740.731 1818.16 729.935 1876.85 719.934C1901.37 719.259 1926.63 718.594 1952.84 717.928V717.004C1928.94 717.605 1905.84 718.224 1883.35 718.853C1906.19 714.989 1929.38 711.245 1952.92 707.622L1952.61 706.642ZM1516.85 729.649C1481.05 730.665 1445.58 731.608 1409.81 732.422C1428.56 726.66 1447.36 721.031 1466.21 715.534C1474.11 713.236 1482.01 710.962 1489.92 708.713C1535.27 705.903 1582.42 703.13 1631.38 700.394C1592.8 709.409 1554.62 719.161 1516.85 729.649ZM816.463 751.694C812.98 748.995 809.476 746.271 805.95 743.523L808.807 743.606L810.851 745.066L819.912 751.536L816.676 751.832L816.463 751.694ZM922.236 739.751L932.888 740.925H932.638C927.547 741.129 922.483 741.326 917.447 741.517C910.975 740.509 904.66 739.557 898.336 738.624H903.014L922.236 739.751ZM845.773 769.2C841.926 766.353 838.08 763.553 834.243 760.761L837.433 760.299L849.989 768.544L845.958 769.339L845.773 769.2ZM830.341 730.185C838.357 731.654 846.494 733.143 854.704 734.714C849.687 734.363 844.755 734.005 839.911 733.642L825.616 729.547L828.492 729.833L830.341 730.185ZM1061.88 729.538C1091.46 726.703 1120.92 723.89 1150.24 721.099C1132.98 724.63 1115.77 728.173 1098.61 731.728C1074.41 733.253 1049.53 734.806 1024.64 736.258C1037.08 733.996 1049.49 731.756 1061.88 729.538ZM895.211 743.19L899.242 744.114L882.645 745.686L875.443 743.67C881.933 743.541 888.535 743.384 895.211 743.19ZM955.624 742.524L945.028 741.341L949.355 741.147C953.312 741.35 957.279 741.545 961.254 741.729L955.624 742.524ZM966.182 741.961C972.118 742.244 978.067 742.521 984.027 742.792L974.337 744.641L959.304 742.977L966.182 741.961ZM793.718 725.036L794.809 725.637L792.479 725.397L788.503 723.058L790.241 723.354L793.718 725.036ZM995.529 765.096C988.749 766.852 981.944 768.618 975.114 770.393C966.842 768.26 958.521 766.104 950.15 763.922L969.807 759.744C978.387 761.556 986.964 763.34 995.538 765.096H995.529ZM972.026 759.245L992.293 754.929C1001.06 756.365 1009.82 757.773 1018.59 759.153C1011.62 760.934 1004.63 762.733 997.6 764.551C989.075 762.813 980.554 761.045 972.035 759.245H972.026ZM973.265 770.873C967.539 772.358 961.791 773.856 956.021 775.365C947.866 772.771 939.943 770.22 932.25 767.712L948.144 764.329C956.564 766.541 964.94 768.723 973.274 770.873H973.265ZM846.974 749.965C851.332 751.931 855.829 753.955 860.464 756.038L855.841 756.703C851.594 754.559 847.418 752.427 843.313 750.307L846.974 749.965ZM841.778 749.521C838.182 747.673 834.65 745.824 831.146 743.976H833.919C837.575 745.646 841.347 747.368 845.236 749.143L841.778 749.521ZM862.045 756.74C866.804 758.866 871.711 761.042 876.765 763.266L871.116 764.375C866.419 762.04 861.796 759.726 857.247 757.434L862.045 756.74ZM878.254 763.913C885.361 767.037 892.757 770.251 900.444 773.554L893.047 775.125C886.002 771.724 879.135 768.365 872.447 765.05L878.254 763.913ZM914.525 770.55L902.016 773.221C894.342 769.93 886.945 766.726 879.825 763.608C883.468 762.887 887.111 762.185 890.754 761.473C898.428 764.431 906.355 767.456 914.535 770.55H914.525ZM892.474 761.14L903.255 759.051C911.409 761.806 919.894 764.628 928.709 767.518L916.199 770.189C908.044 767.114 900.139 764.098 892.483 761.14H892.474ZM901.923 774.182C909.141 777.263 916.609 780.431 924.326 783.684L915.783 785.94L908.072 782.298C903.449 780.11 898.903 777.953 894.434 775.828L901.923 774.182ZM903.486 773.85L916.134 771.151C923.63 773.973 931.335 776.841 939.249 779.756L925.787 783.296C918.125 780.092 910.707 776.943 903.532 773.85H903.486ZM917.808 770.79L930.456 768.091C938.173 770.624 946.137 773.193 954.348 775.8L940.821 779.349C932.949 776.459 925.281 773.606 917.817 770.79H917.808ZM930.503 767.093C921.707 764.215 913.234 761.402 905.085 758.654L917.798 756.204C927.309 758.762 936.762 761.279 946.156 763.756L930.503 767.093ZM903.319 758.053C898.179 756.315 893.17 754.608 888.295 752.932L899.741 751.296C905.104 752.769 910.445 754.22 915.764 755.65L903.319 758.053ZM901.47 758.404L890.847 760.465C886.991 758.977 883.191 757.498 879.474 756.047L876.007 754.688L886.279 753.219C891.223 754.975 896.292 756.719 901.489 758.45L901.47 758.404ZM879.132 756.907L889.136 760.798L878.346 762.906C873.335 760.706 868.471 758.549 863.756 756.435L874.158 754.938L879.132 756.907ZM862.175 755.742C857.583 753.696 853.132 751.697 848.824 749.743L858.55 748.819C863.044 750.594 867.667 752.408 872.419 754.263L862.175 755.742ZM847.123 748.976L836.185 743.985H846.235L856.637 748.08L847.123 748.976ZM834.178 743.051C829.981 741.116 825.949 739.246 822.085 737.441L830.212 737.644L843.933 743.07C840.66 743.116 837.386 743.116 834.187 743.097L834.178 743.051ZM831.941 743.051H829.361C825.737 741.153 822.159 739.265 818.627 737.385H819.773C823.656 739.221 827.712 741.12 831.941 743.079V743.051ZM816.787 736.396L810.499 733.041L817.683 736.424L816.787 736.396ZM804.129 730.656L800.865 730.36C799.016 729.233 797.083 728.114 795.225 726.987L794.384 726.487L796.908 726.746C799.293 728.068 801.697 729.381 804.129 730.684V730.656ZM783.612 720.202L783.492 720.128L782.142 719.352L784.047 720.276L783.612 720.202ZM772.97 715.072C775.522 716.588 778.102 718.085 780.663 719.564L778.564 719.121C776.715 717.771 774.782 716.412 772.896 715.044L772.97 715.072ZM783.279 721.071L783.621 721.274L780.958 720.821L780.459 720.47L783.279 721.071ZM782.706 722.051L785.905 722.596C787.357 723.428 788.799 724.269 790.251 725.129L786.469 724.694L786.284 724.583L782.706 722.051ZM792.192 726.275C793.043 726.774 793.903 727.273 794.744 727.781L798.739 730.166L794.624 729.815L788.263 725.831L792.192 726.275ZM806.2 731.821L814.715 736.387L810.777 736.267L802.705 731.507L806.2 731.821ZM816.546 737.367C820.097 739.265 823.69 741.166 827.327 743.07L822.343 743.005C819.015 741.095 815.714 739.178 812.441 737.256L816.546 737.367ZM829.121 744.013C832.727 745.898 836.379 747.796 840.077 749.706L834.927 750.187C831.229 748.11 827.583 746.031 823.989 743.948L829.121 744.013ZM841.603 750.483C845.757 752.627 849.97 754.784 854.242 756.953L848.463 757.785C844.395 755.523 840.351 753.256 836.332 750.982L841.603 750.483ZM855.684 757.683C860.252 759.994 864.902 762.326 869.636 764.68L863.164 765.947C858.658 763.482 854.189 761.017 849.758 758.552L855.684 757.683ZM870.996 765.355C877.702 768.683 884.575 772.05 891.614 775.458L883.755 777.14C877.264 773.64 870.835 770.14 864.468 766.64L870.996 765.355ZM892.973 776.114C897.793 778.443 902.697 780.791 907.683 783.158L914.405 786.328L905.344 788.731C898.521 785.089 891.74 781.451 885.003 777.815L892.973 776.114ZM915.7 786.938C923.318 790.524 931.371 794.283 939.859 798.215L929.578 801.579C921.848 797.494 914.171 793.424 906.546 789.369L915.7 786.938ZM917.096 786.568L925.741 784.294C933.834 787.69 942.186 791.147 950.797 794.665L941.154 797.799C932.715 793.867 924.696 790.118 917.096 786.55V786.568ZM927.201 783.906L940.784 780.329C949.105 783.41 957.648 786.51 966.414 789.628L952.156 794.249C943.589 790.718 935.27 787.264 927.201 783.888V783.906ZM942.365 779.885L956.03 776.308C964.531 779.007 973.28 781.743 982.28 784.516L967.875 789.138C959.146 786.051 950.643 782.966 942.365 779.885ZM957.704 775.865L975.142 771.326C984.221 773.655 993.252 775.945 1002.23 778.194C996.099 780.123 989.963 782.067 983.824 784.026C974.855 781.266 966.142 778.551 957.686 775.883L957.704 775.865ZM976.991 770.846L997.619 765.503C1006.77 767.389 1015.91 769.237 1025.06 771.049C1018.02 773.236 1010.97 775.442 1003.92 777.667C994.971 775.449 985.99 773.181 976.972 770.864L976.991 770.846ZM999.662 764.976L1020.93 759.523C1030.17 760.971 1039.42 762.388 1048.67 763.774C1041.42 765.993 1034.18 768.227 1026.94 770.476C1017.81 768.689 1008.73 766.862 999.69 764.995L999.662 764.976ZM1023.17 758.94L1045.53 753.237C1054.91 754.229 1064.32 755.2 1073.77 756.149C1066.08 758.472 1058.37 760.804 1050.65 763.146C1041.49 761.79 1032.32 760.395 1023.15 758.959L1023.17 758.94ZM1048.13 752.581L1072.34 746.453C1082.51 746.859 1092.57 747.248 1102.38 747.617C1093.62 750.205 1084.85 752.818 1076.09 755.456C1066.71 754.525 1057.38 753.573 1048.1 752.599L1048.13 752.581ZM1045.47 752.304C1036.42 751.355 1027.42 750.393 1018.47 749.42L1038.87 745.122L1069.07 746.333C1061.24 748.317 1053.37 750.313 1045.44 752.322L1045.47 752.304ZM1042.89 752.96C1035.58 754.809 1028.24 756.682 1020.86 758.58C1012.17 757.218 1003.49 755.828 994.808 754.411L1015.55 750.03C1024.61 751.022 1033.71 752.005 1042.86 752.978L1042.89 752.96ZM992.293 754.004C981.198 752.156 970.078 750.307 958.934 748.458L974.43 745.547C987.047 746.952 999.773 748.351 1012.61 749.743L992.293 754.004ZM989.806 754.531L969.862 758.755C959.661 756.593 949.459 754.386 939.258 752.137L956.326 748.911C967.464 750.834 978.609 752.713 989.76 754.55L989.806 754.531ZM967.616 759.227L948.199 763.359C938.818 760.894 929.384 758.386 919.897 755.835C925.574 754.744 931.251 753.659 936.928 752.581C947.142 754.849 957.365 757.07 967.597 759.245L967.616 759.227ZM917.863 755.28C912.618 753.863 907.357 752.436 902.08 751L919.037 748.588C924.234 749.759 929.436 750.92 934.645 752.073L917.863 755.28ZM899.843 750.39C894.973 749.059 890.089 747.713 885.188 746.351L902.136 744.752C906.925 745.855 911.715 746.943 916.504 748.015L899.843 750.39ZM897.541 750.714L886.446 752.304C881.749 750.689 877.178 749.099 872.734 747.534L882.627 746.61C887.595 748.003 892.56 749.377 897.522 750.732L897.541 750.714ZM872.327 748.385C876.247 749.762 880.288 751.158 884.411 752.59L874.306 754.032L860.622 748.671L870.496 747.747L872.327 748.385ZM858.717 747.922L848.759 744.003C852.309 744.003 855.897 743.948 859.531 743.911L868.407 747.007L858.717 747.922ZM846.448 743.088L832.893 737.727L842.268 737.921L856.96 743.014C853.391 743.07 849.906 743.088 846.429 743.107L846.448 743.088ZM830.415 736.747L821.169 733.05L830.332 733.79L839.421 736.914L830.415 736.747ZM827.752 736.683C825.145 736.627 822.562 736.563 820.004 736.489C816.848 735.022 813.809 733.592 810.888 732.2C813.245 732.403 815.612 732.616 818.016 732.81L827.752 736.683ZM808.484 731.063C805.568 729.676 802.773 728.342 800.098 727.06L804.721 727.495L815.076 731.636L808.484 731.063ZM797.684 725.896L794.189 724.214L793.589 723.881L797.157 724.472L801.66 726.321L797.684 725.896ZM800.588 731.266C803.331 732.899 806.104 734.535 808.909 736.174L804.795 736.045C802.002 734.344 799.207 732.628 796.409 730.896L800.588 731.266ZM810.536 737.145C813.816 739.074 817.126 741.002 820.467 742.931L816.038 742.848C812.82 740.925 809.596 738.981 806.366 737.015L810.536 737.145ZM822.103 743.883C825.801 746.021 829.543 748.16 833.328 750.298L829.232 750.677C825.379 748.403 821.514 746.111 817.637 743.8L822.103 743.883ZM834.742 751.093C838.792 753.385 842.869 755.677 846.974 757.97L842.694 758.589L830.591 751.481L834.742 751.093ZM848.306 758.709C852.769 761.174 857.268 763.667 861.805 766.187L857.182 767.111L846.836 761.048L843.942 759.356L848.306 758.709ZM863.099 766.88C869.479 770.38 875.914 773.89 882.405 777.408L876.728 778.619C870.607 774.959 864.514 771.351 858.449 767.795L863.099 766.88ZM883.662 778.083C890.412 781.725 897.217 785.376 904.078 789.036L896.986 790.885C890.625 786.941 884.26 783.071 877.893 779.275L883.662 778.083ZM905.279 789.674C912.935 793.759 920.64 797.848 928.394 801.94L919.5 804.861C913.407 801.163 907.48 797.466 901.674 793.833C900.472 793.075 899.26 792.336 898.058 791.587L905.279 789.674ZM929.541 802.54C937.677 806.854 945.86 811.167 954.089 815.481L961.726 819.465L950.557 823.578C940.322 817.505 930.216 811.451 920.554 805.517L929.541 802.54ZM954.505 814.64L930.752 802.143L941.135 798.751C951.904 803.73 963.325 808.968 975.401 814.464L962.891 819.086L954.505 814.64ZM942.365 798.372L952.101 795.211C963.714 799.955 975.771 804.796 988.271 809.732L976.584 814.002C964.571 808.555 953.164 803.345 942.365 798.372ZM953.46 794.767C958.25 793.214 963.036 791.674 967.819 790.145C980.024 794.508 992.641 798.932 1005.67 803.419C1000.25 805.378 994.888 807.328 989.575 809.27C977.111 804.328 965.073 799.487 953.46 794.748V794.767ZM969.261 789.674C974.106 788.121 978.945 786.581 983.777 785.052C996.537 788.984 1009.79 792.965 1023.54 796.995C1017.99 798.979 1012.5 800.957 1007.07 802.929C994.081 798.443 981.487 794.018 969.289 789.655L969.261 789.674ZM985.322 784.544C991.529 782.566 997.72 780.606 1003.9 778.665C1018.01 782.196 1032.02 785.631 1045.93 788.971C1038.88 791.479 1031.91 793.972 1025 796.449C1011.32 792.419 998.109 788.438 985.349 784.507L985.322 784.544ZM1005.58 778.129C1012.7 775.892 1019.81 773.671 1026.92 771.465C1041.71 774.398 1056.51 777.248 1071.3 780.015C1063.29 782.825 1055.37 785.622 1047.57 788.408C1033.67 785.068 1019.69 781.635 1005.61 778.111L1005.58 778.129ZM1028.77 770.892C1036.09 768.624 1043.4 766.372 1050.7 764.135C1066.26 766.464 1081.84 768.71 1097.46 770.873C1089.24 773.72 1081.09 776.564 1073 779.405C1058.28 776.644 1043.54 773.8 1028.8 770.873L1028.77 770.892ZM1052.81 763.497C1060.59 761.125 1068.38 758.765 1076.16 756.417C1083.56 757.169 1090.99 757.902 1098.45 758.617C1107.51 759.498 1116.61 760.339 1125.75 761.14C1116.9 764.16 1108.12 767.179 1099.41 770.199C1083.83 768.029 1068.29 765.793 1052.8 763.488L1052.81 763.497ZM1098.53 757.702C1091.83 757.086 1085.14 756.426 1078.47 755.724C1087.4 753.043 1096.33 750.387 1105.28 747.756L1112.34 748.033C1128.78 748.662 1144.53 749.263 1159.19 749.882C1148.71 753.394 1138.3 756.913 1127.94 760.438C1118.1 759.544 1108.29 758.632 1098.52 757.702H1098.53ZM1112.35 747.109L1108.02 746.943C1118.71 743.8 1129.4 740.694 1140.1 737.625L1150.75 737.515C1164.56 737.376 1177.73 737.237 1190.08 737.126L1197.93 737.043C1185.75 741.018 1173.64 745.023 1161.62 749.059C1146.27 748.403 1129.7 747.765 1112.34 747.1L1112.35 747.109ZM1105.14 746.832L1075.55 745.686C1085.94 743.079 1096.24 740.503 1106.45 737.958L1136.65 737.662C1126.13 740.682 1115.61 743.735 1105.09 746.822L1105.14 746.832ZM1110.29 736.997L1137.87 730.194C1148.83 729.519 1159.47 728.872 1169.72 728.262C1159.79 731.047 1149.87 733.86 1139.97 736.701L1110.29 736.997ZM1106.3 737.043L1076.32 737.311L1098.74 732.69L1105.45 732.264L1132.68 730.554C1123.94 732.68 1115.14 734.84 1106.29 737.034L1106.3 737.043ZM1102.44 737.968C1092.45 740.432 1082.38 742.95 1072.23 745.519C1062.46 745.14 1052.55 744.743 1042.55 744.336L1071.7 738.235L1102.44 737.968ZM1038.78 744.188C1023.37 743.56 1007.76 742.894 992.136 742.201L1011.39 738.651C1030.09 738.559 1048.72 738.43 1066.98 738.282L1038.78 744.188ZM1035.08 744.955L1015.47 749.087C1002.73 747.701 990.071 746.311 977.509 744.918L988.104 742.95C1003.82 743.68 1019.54 744.345 1035.08 744.983V744.955ZM956.576 743.523L971.221 745.149L956.28 747.922L947.515 746.416L941.45 745.371L955.605 743.384L956.576 743.523ZM947.33 747.359L953.654 748.449L936.901 751.62C931.785 750.492 926.675 749.358 921.571 748.218L938.398 745.833L947.33 747.359ZM919.037 747.645C914.365 746.591 909.693 745.532 905.021 744.466L920.739 742.977C925.547 743.726 930.401 744.512 935.347 745.334L919.037 747.645ZM902.154 743.809L898.863 743.051C904.589 742.885 910.371 742.694 916.208 742.478L902.154 743.809ZM880.057 745.898L870.561 746.822L862.24 743.892C865.54 743.892 868.878 743.8 872.253 743.735L880.057 745.898ZM859.632 742.977C854.658 741.24 849.853 739.57 845.218 737.968L852.217 738.088C857.857 739.69 863.482 741.273 869.091 742.839L859.632 742.977ZM842.389 736.988L833.975 734.095L839.67 734.529L848.74 737.108L842.389 736.988ZM830.48 732.893L818.562 728.826L820.485 729.02L835.279 733.263L830.48 732.893ZM826.781 732.597L818.201 731.895L807.938 727.8L814.568 728.438L826.781 732.597ZM804.896 726.58L801.29 725.138L808.012 726.219L810.786 727.144L804.896 726.58ZM784.315 724.435L783.742 724.362L780.654 722.097L784.315 724.435ZM802.807 735.971H802.677L801.651 735.259L802.807 735.971ZM804.416 736.951C807.652 738.923 810.879 740.87 814.096 742.792H812.709L804.11 736.969L804.416 736.951ZM815.696 743.754C819.671 746.132 823.635 748.486 827.586 750.816L825.099 751.047C821.456 748.625 817.801 746.182 814.133 743.717L815.696 743.754ZM828.945 751.62L841.159 758.792L837.59 759.301C833.842 756.836 830.088 754.371 826.328 751.906L828.945 751.62ZM842.509 759.55L846.411 761.824L855.851 767.37L851.302 768.294L838.829 760.105L842.509 759.55ZM857.053 768.073C863.118 771.628 869.227 775.236 875.378 778.896L869.433 780.172L853.243 769.542L852.402 768.988L857.053 768.073ZM876.543 779.599C882.935 783.413 889.33 787.295 895.729 791.245L888.896 793.094C885.059 790.543 881.212 787.982 877.375 785.45L870.515 780.911L876.543 779.599ZM896.81 791.911C898.262 792.835 899.713 793.704 901.165 794.619C906.713 798.094 912.436 801.632 918.335 805.23L910.864 807.698L889.922 793.75L896.81 791.911ZM919.37 805.868C929.088 811.811 939.156 817.884 949.41 823.966L940.322 827.331C931.205 821.276 922.125 815.213 913.138 809.223L911.835 808.354L919.37 805.868ZM950.446 824.576C961.356 831.046 972.451 837.517 983.528 843.885L972.183 848.322C961.871 841.605 951.571 834.827 941.283 827.987L950.446 824.576ZM951.565 824.17L962.817 820.019C974.652 826.181 986.434 832.257 998.164 838.247C993.609 839.991 989.1 841.729 984.637 843.46C973.551 837.119 962.456 830.649 951.546 824.188L951.565 824.17ZM963.991 819.548C968.189 818.001 972.393 816.461 976.603 814.926C988.715 820.392 1001.42 826.055 1014.72 831.915C1009.55 833.869 1004.41 835.816 999.329 837.757C987.587 831.835 975.801 825.793 963.973 819.631L963.991 819.548ZM977.86 814.473L989.64 810.175C1002.8 815.364 1016.43 820.639 1030.54 826C1025.61 827.848 1020.76 829.663 1015.97 831.444C1002.65 825.658 989.938 820.022 977.832 814.538L977.86 814.473ZM990.952 809.695C996.333 807.735 1001.73 805.779 1007.15 803.825C1021.27 808.669 1035.84 813.561 1050.87 818.503C1044.47 820.845 1038.13 823.18 1031.87 825.51C1017.74 820.204 1004.09 814.954 990.925 809.759L990.952 809.695ZM1008.52 803.317L1025.1 797.346C1040.23 801.789 1055.92 806.269 1072.17 810.785C1065.47 813.189 1058.83 815.592 1052.25 817.995C1037.23 813.102 1022.64 808.231 1008.51 803.382L1008.52 803.317ZM1026.58 796.847C1033.59 794.332 1040.61 791.824 1047.66 789.323C1064.92 793.451 1082.02 797.438 1098.96 801.283C1090.44 804.291 1082.01 807.285 1073.68 810.268C1057.43 805.794 1041.72 801.333 1026.57 796.884L1026.58 796.847ZM1049.27 788.75C1057.21 785.927 1065.18 783.114 1073.18 780.311C1092.07 783.841 1110.98 787.231 1129.91 790.478C1120.05 793.88 1110.28 797.269 1100.61 800.646C1083.63 796.868 1066.51 792.915 1049.26 788.787L1049.27 788.75ZM1074.92 779.701C1083.13 776.829 1091.35 773.964 1099.59 771.104C1120.55 774.001 1141.59 776.749 1162.71 779.349C1152.27 782.868 1141.93 786.383 1131.71 789.896C1112.73 786.654 1093.8 783.268 1074.91 779.737L1074.92 779.701ZM1101.51 770.457C1110.34 767.376 1119.22 764.332 1128.12 761.325C1151.85 763.42 1175.76 765.321 1199.85 767.028C1188.02 770.91 1176.31 774.795 1164.71 778.684C1143.55 776.102 1122.48 773.366 1101.5 770.476L1101.51 770.457ZM1130.29 760.586C1140.77 757.005 1151.3 753.456 1161.89 749.937L1173.47 750.4C1197.14 751.379 1220.39 752.248 1243.38 752.923C1229.49 757.36 1215.75 761.806 1202.17 766.261C1178.02 764.585 1154.05 762.699 1130.28 760.604L1130.29 760.586ZM1173.5 749.494L1164.36 749.115C1176.6 745.035 1188.87 740.996 1201.19 736.997C1234.47 736.646 1266.77 736.202 1298.27 735.666C1280.65 741.107 1263.22 746.582 1245.97 752.091C1222.17 751.37 1198.05 750.51 1173.51 749.503L1173.5 749.494ZM1204.12 736.036C1216.33 732.08 1228.58 728.16 1240.85 724.278C1279.49 722.06 1319.04 719.592 1359.84 717.004C1340.21 722.846 1320.75 728.74 1301.47 734.686C1269.84 735.241 1237.52 735.694 1204.11 736.045L1204.12 736.036ZM1200.85 736.036L1190.07 736.147C1177.73 736.258 1164.55 736.396 1150.74 736.535L1143.45 736.609C1153.64 733.694 1163.85 730.81 1174.07 727.957C1182.01 727.495 1189.72 727.033 1197.12 726.672C1210.27 725.97 1223.52 725.237 1236.88 724.472C1224.79 728.33 1212.78 732.2 1200.84 736.082L1200.85 736.036ZM1197.06 725.748C1190.99 726.072 1184.7 726.423 1178.24 726.793C1193.93 722.424 1209.64 718.132 1225.39 713.917C1247.27 711.852 1269.01 709.813 1290.62 707.798L1281.84 710.469C1267.98 714.69 1254.17 718.982 1240.39 723.345C1225.84 724.207 1211.4 725.024 1197.05 725.794L1197.06 725.748ZM1230.84 712.475C1245.63 708.549 1260.47 704.683 1275.34 700.875C1298.01 698.046 1320.1 695.335 1341.62 692.74C1326.3 697.146 1310.78 701.722 1295.07 706.467C1273.79 708.469 1252.38 710.487 1230.84 712.521V712.475ZM1225.29 713.002L1197.99 715.581C1213.17 711.957 1228.16 708.414 1242.97 704.951L1268.05 701.79C1253.72 705.499 1239.47 709.252 1225.29 713.048V713.002ZM1219.96 714.434C1204.58 718.569 1189.24 722.772 1173.95 727.042C1163.98 727.615 1153.61 728.244 1142.95 728.891C1159.37 724.879 1175.58 720.954 1191.59 717.115L1219.96 714.434ZM1137.77 729.223L1105.41 731.248H1105.18C1123.02 727.55 1140.93 723.872 1158.9 720.211L1185.02 717.725C1169.44 721.515 1153.67 725.363 1137.72 729.27L1137.77 729.223ZM1092.25 733.004L1071.63 737.302C1053.58 737.45 1035.15 737.589 1016.62 737.681L1017.24 737.57C1042.39 736.165 1067.61 734.594 1092.2 733.05L1092.25 733.004ZM1006.17 738.661L988.086 741.998L971.185 741.23L984.425 739.382L997.11 738.698L1006.17 738.661ZM966.247 740.99L959.109 740.657L973.903 739.927L966.247 740.99ZM939.073 741.563L951.971 742.996L938.5 744.844C933.775 744.049 929.134 743.292 924.548 742.561L932.777 741.776L939.073 741.563ZM895.368 742.219L893.445 741.776C888.359 740.605 883.293 739.486 878.244 738.42C882.673 738.476 887.13 738.513 891.642 738.55C898.595 739.567 905.511 740.593 912.565 741.674C906.747 741.884 900.999 742.081 895.322 742.266L895.368 742.219ZM891.669 742.321C885.16 742.494 878.744 742.641 872.419 742.765L855.915 738.143L873.483 738.383C879.456 739.647 885.496 740.975 891.605 742.367L891.669 742.321ZM852.448 737.145L844.293 734.843C850.168 735.268 856.137 735.688 862.203 736.1L868.675 737.385C863.118 737.367 857.7 737.284 852.384 737.191L852.448 737.145ZM814.845 727.513L813.495 727.051L814.318 727.181L815.742 727.597L814.845 727.513ZM788.956 721.274L787.764 720.627L789.807 721.45L788.956 721.274ZM781.957 724.112H781.781L780.57 723.114L781.957 724.112ZM783.483 725.23L789.104 729.325L788.078 729.242C786.414 727.892 784.752 726.54 783.094 725.184L783.483 725.23ZM785.332 725.461L786.146 725.563C788.06 726.903 789.964 728.234 791.878 729.556L790.843 729.473L785.332 725.461ZM793.394 730.61C795.946 732.385 798.501 734.144 801.059 735.888H799.672L792.276 730.564L793.394 730.61ZM802.483 736.867C805.355 738.827 808.228 740.771 811.1 742.7L809.168 742.645L801.022 736.812L802.483 736.867ZM812.524 743.661C816.266 746.188 820.004 748.69 823.74 751.167L821.363 751.389L811.433 744.271L810.509 743.606L812.524 743.661ZM824.96 751.98C828.757 754.494 832.545 756.996 836.323 759.486L833.217 759.939C829.629 757.332 826.057 754.756 822.501 752.211L824.96 751.98ZM851.135 769.219L852.762 770.291C857.839 773.619 863.016 777.011 868.185 780.458L862.572 781.66C857.358 777.759 852.171 773.899 847.012 770.078L851.135 769.219ZM869.276 781.133L876.894 786.162L887.731 793.353L880.722 795.201L863.562 782.335L869.276 781.133ZM888.757 794.074C895.821 798.769 902.857 803.465 909.773 808.077L901.452 810.85L886.446 799.583L881.656 795.987L888.757 794.074ZM910.753 808.733L912.658 810C921.454 815.872 930.327 821.785 939.277 827.737L929.18 831.435C920.193 824.798 911.255 818.14 902.367 811.46C905.113 810.582 907.915 809.667 910.707 808.743L910.753 808.733ZM940.238 828.375C950.51 835.197 960.839 842.018 971.148 848.71C967.166 850.275 963.221 851.838 959.313 853.397C949.543 846.396 939.794 839.31 930.068 832.137C933.421 830.886 936.796 829.635 940.192 828.384L940.238 828.375ZM972.1 849.367C982.76 856.317 993.365 863.176 1003.92 869.822L1013.87 876.079C1009.37 878.002 1004.88 879.937 1000.38 881.884L993.06 876.948C982.122 869.554 971.157 861.891 960.21 854.071C964.111 852.518 968.059 850.953 972.054 849.376L972.1 849.367ZM1004.46 869.036C994.124 862.51 983.676 855.781 973.209 848.951L984.628 844.486C990.213 847.69 995.776 850.861 1001.32 853.997C1010.75 859.328 1020.03 864.529 1029.17 869.6L1014.95 875.636C1011.41 873.46 1007.88 871.264 1004.37 869.045L1004.46 869.036ZM1001.77 853.193C996.457 850.192 991.113 847.148 985.738 844.061C990.231 842.323 994.768 840.576 999.348 838.82C1015.12 846.831 1030.8 854.684 1046.38 862.381C1041 864.63 1035.63 866.885 1030.26 869.147C1020.84 863.958 1011.31 858.643 1001.68 853.202L1001.77 853.193ZM1000.51 838.404C1005.63 836.457 1010.79 834.497 1016.01 832.525C1031.99 839.55 1048.72 846.781 1066.21 854.219C1059.98 856.776 1053.74 859.349 1047.52 861.937C1031.89 854.272 1016.19 846.421 1000.42 838.386L1000.51 838.404ZM1017.25 832.063L1031.92 826.573C1049.12 833.092 1066.99 839.692 1085.55 846.372C1079.51 848.837 1073.48 851.301 1067.45 853.766C1049.92 846.329 1033.15 839.088 1017.16 832.045L1017.25 832.063ZM1033.24 826.083C1039.55 823.754 1045.92 821.412 1052.35 819.058C1070.55 825.017 1089.38 831.009 1108.84 837.036C1101.48 839.957 1094.13 842.896 1086.8 845.854C1068.23 839.187 1050.35 832.602 1033.15 826.101L1033.24 826.083ZM1053.76 818.54C1060.37 816.131 1067.05 813.715 1073.8 811.294C1093.01 816.618 1112.97 821.957 1133.66 827.312C1125.83 830.35 1118.01 833.41 1110.21 836.491C1090.71 830.489 1071.86 824.499 1053.67 818.522L1053.76 818.54ZM1075.3 810.758C1083.69 807.757 1092.17 804.747 1100.75 801.727C1122.11 806.552 1143.29 811.174 1164.29 815.592C1154.55 819.289 1144.83 823.017 1135.14 826.776C1114.41 821.397 1094.43 816.051 1075.21 810.739L1075.3 810.758ZM1102.39 801.145C1112.1 797.731 1121.93 794.317 1131.89 790.903C1154.65 794.822 1177.46 798.56 1200.31 802.115C1188.8 806.349 1177.33 810.628 1165.89 814.954C1144.84 810.56 1123.65 805.957 1102.32 801.145H1102.39ZM1133.7 790.275C1143.99 786.744 1154.4 783.207 1164.92 779.664C1189.44 782.677 1214.13 785.493 1239.01 788.112C1226.68 792.505 1214.38 796.954 1202.11 801.459C1179.19 797.897 1156.36 794.163 1133.61 790.256L1133.7 790.275ZM1166.99 778.989C1178.65 775.07 1190.46 771.151 1202.4 767.232C1229.52 769.148 1256.85 770.827 1284.39 772.269C1269.9 777.229 1255.45 782.273 1241.05 787.4C1216.08 784.775 1191.35 781.962 1166.87 778.961L1166.99 778.989ZM1204.73 766.464C1218.41 761.978 1232.25 757.504 1246.25 753.043C1276.38 753.967 1306.02 754.661 1335.39 755.169C1319.12 760.499 1302.91 765.931 1286.76 771.465C1259.12 770.004 1231.74 768.331 1204.61 766.446L1204.73 766.464ZM1248.9 752.202C1266.3 746.656 1283.91 741.135 1301.73 735.638C1336.23 735.047 1369.92 734.344 1403.28 733.568C1381.45 740.309 1359.71 747.217 1338.07 754.291C1308.56 753.783 1278.92 753.08 1248.78 752.156L1248.9 752.202ZM1304.91 734.64C1324.43 728.632 1344.16 722.67 1364.08 716.754L1398.37 714.564C1426.8 712.752 1455.92 710.903 1485.75 709.018C1479.2 710.866 1472.65 712.752 1466.1 714.675C1446.18 720.479 1426.33 726.429 1406.54 732.523C1373 733.337 1339.3 734.039 1304.81 734.64H1304.91ZM1398.29 713.639L1368.03 715.571L1383.87 710.894C1403.41 705.163 1422.83 699.571 1442.12 694.118C1490.84 689.838 1538.47 685.799 1584.73 682.102C1553.14 690.254 1521.53 698.826 1489.92 707.816C1458.5 709.788 1427.92 711.729 1398.19 713.639H1398.29ZM1383.61 710.007L1363.89 715.83C1322.96 718.437 1283.29 720.914 1244.55 723.16C1261.57 717.799 1278.64 712.54 1295.75 707.382C1343.72 702.927 1390.85 698.65 1437.15 694.552C1419.36 699.593 1401.48 704.744 1383.51 710.007H1383.61ZM1300.21 706.042C1316.13 701.266 1332.06 696.592 1348.01 692.02C1408.3 684.764 1464.05 678.414 1515.57 672.849C1491.36 679.375 1466.81 686.153 1441.91 693.184C1395.51 697.276 1348.24 701.562 1300.11 706.042H1300.21ZM1353.49 690.457C1376.64 683.864 1399.81 677.526 1423 671.444C1490.82 661.831 1556.3 653.337 1618.74 646.081C1587.21 653.919 1554.67 662.34 1521.39 671.278C1466.02 677.286 1409.77 683.682 1353.38 690.457H1353.49ZM1347.12 691.225C1325.54 693.831 1303.95 696.478 1282.33 699.165C1304.22 693.619 1326.27 688.208 1348.46 682.933L1363.8 680.04C1380.77 677.514 1397.59 675.049 1414.29 672.646C1392.26 678.494 1369.84 684.687 1347.01 691.225H1347.12ZM1387.72 675.585C1404.85 672.412 1421.94 669.3 1438.98 666.25C1433.36 667.692 1427.71 669.158 1422.03 670.649C1410.59 672.27 1399.12 673.915 1387.62 675.585H1387.72ZM1368.5 678.219C1428.8 664.207 1490.55 651.202 1554.54 639.176C1521.17 646.213 1486.81 654.181 1451.45 663.079C1423.86 667.972 1396.17 673.016 1368.4 678.21L1368.5 678.219ZM1329.28 686.538C1311.08 690.938 1293 695.436 1275.02 700.033L1251.41 703C1264.43 699.969 1277.31 696.999 1290.07 694.09C1303.07 691.576 1316.11 689.071 1329.18 686.575L1329.28 686.538ZM1318.37 687.685L1329.97 685.087L1339.64 683.627C1332.48 684.989 1325.36 686.354 1318.27 687.721L1318.37 687.685ZM1242.55 704.119L1232.76 705.367C1242.62 703.407 1252.49 701.457 1262.35 699.516C1255.71 701.056 1249.08 702.603 1242.45 704.156L1242.55 704.119ZM1234.18 706.078C1220.11 709.388 1205.88 712.777 1191.49 716.246L1167.56 718.52C1185.1 714.952 1202.67 711.406 1220.26 707.881L1234.18 706.078ZM1158.84 719.315L1073.24 727.495L1079.9 726.312C1124.13 720.353 1166.57 714.758 1207.22 709.526C1190.99 712.798 1174.83 716.073 1158.72 719.352L1158.84 719.315ZM1050.74 730.582C1039.57 732.585 1028.39 734.612 1017.18 736.664C1010.5 737.046 1003.82 737.419 997.147 737.783H996.01C1011.93 735.57 1027.65 733.414 1043.16 731.312L1050.74 730.582ZM950.686 740.14L964.722 738.799H978.59C969.203 739.286 959.901 739.733 950.686 740.14ZM884.837 737.589L873.547 737.468L869.294 736.544C874.379 736.877 879.52 737.203 884.717 737.524L884.837 737.589ZM862.304 735.204C855.98 733.971 849.708 732.779 843.489 731.627C853.04 733.032 862.24 734.344 871.338 735.647L873.187 735.916L862.304 735.204ZM800.135 723.539L794.717 722.476L785.757 718.853L788.707 719.721L800.135 723.539ZM789.317 730.296L790.51 730.388L798.008 735.805L796.159 735.731C793.829 733.95 791.533 732.147 789.271 730.323L789.317 730.296ZM799.358 736.766C802.067 738.707 804.776 740.657 807.513 742.608L804.739 742.524C802.274 740.596 799.808 738.651 797.342 736.692L799.358 736.766ZM821.104 752.35C824.686 754.919 828.285 757.514 831.904 760.133L828.104 760.687C824.646 757.982 821.206 755.305 817.785 752.655L821.104 752.35ZM832.976 760.918C836.909 763.765 840.844 766.64 844.783 769.542L840.438 770.411C836.665 767.41 832.89 764.431 829.111 761.473L832.976 760.918ZM845.782 770.291C850.941 774.099 856.156 777.981 861.37 781.882L856.036 783.028C852.79 780.394 849.563 777.75 846.318 775.134L841.381 771.169L845.782 770.291ZM862.36 782.621C868.123 786.935 873.865 791.248 879.585 795.562L873.4 797.216C867.907 792.724 862.425 788.254 856.951 783.805L862.36 782.621ZM880.528 796.237L885.9 800.276C890.708 803.893 895.54 807.519 900.398 811.155L893.398 813.484L874.694 798.233L874.287 797.91L880.528 796.237ZM901.294 811.83C910.189 818.503 919.127 825.171 928.108 831.832L919.851 834.901C911.222 827.999 902.675 821.092 894.212 814.178L901.294 811.83ZM929.032 832.498C938.75 839.67 948.513 846.806 958.296 853.812C955.047 855.107 951.83 856.398 948.643 857.685C939.274 850.365 929.972 842.995 920.739 835.576L929.032 832.498ZM959.193 854.45C970.288 862.399 981.438 870.164 992.543 877.688L999.375 882.309L987.661 887.402C986.302 886.395 984.942 885.396 983.583 884.38C972.137 875.876 960.764 867.169 949.484 858.36C952.637 857.085 955.883 855.781 959.146 854.487L959.193 854.45ZM1000.28 882.901C1013.84 892.015 1027.26 900.95 1040.55 909.706C1036.02 911.85 1031.5 914.007 1026.98 916.176C1014.19 906.933 1001.37 897.561 988.521 888.059L1000.28 882.901ZM1001.3 882.466C1005.8 880.525 1010.31 878.587 1014.83 876.652C1028.85 885.427 1042.69 893.953 1056.36 902.228C1051.43 904.545 1046.5 906.875 1041.56 909.216C1028.21 900.515 1014.78 891.605 1001.25 882.485L1001.3 882.466ZM1015.87 876.209C1020.62 874.175 1025.38 872.154 1030.16 870.145C1045.02 878.39 1059.56 886.33 1073.91 894.03C1068.36 896.599 1062.85 899.172 1057.37 901.748C1043.65 893.49 1029.8 884.99 1015.82 876.246L1015.87 876.209ZM1031.24 869.683C1036.63 867.409 1042.03 865.148 1047.45 862.899C1062.86 870.472 1078.16 877.866 1093.37 885.082C1087.21 887.905 1081.07 890.733 1074.95 893.567C1060.57 885.896 1046.05 877.956 1031.19 869.72L1031.24 869.683ZM1048.58 862.427C1054.83 859.833 1061.09 857.248 1067.37 854.672C1082.98 861.29 1099.12 868.019 1115.79 874.859L1104.3 880.054L1094.46 884.555C1079.24 877.383 1063.93 870.019 1048.54 862.464L1048.58 862.427ZM1068.57 854.182C1074.63 851.717 1080.7 849.253 1086.78 846.788C1103.25 852.709 1120.23 858.662 1137.69 864.645L1138.3 864.858C1131.17 867.989 1124.05 871.147 1116.95 874.332C1100.29 867.554 1084.15 860.85 1068.53 854.219L1068.57 854.182ZM1137.99 863.777C1120.87 857.916 1104.23 852.081 1088.06 846.27C1095.46 843.306 1102.86 840.354 1110.25 837.415C1127.78 842.825 1145.8 848.22 1164.3 853.6C1156.04 857.131 1147.8 860.699 1139.59 864.303L1137.99 863.777ZM1111.57 836.87C1119.42 833.789 1127.27 830.708 1135.15 827.627C1153.61 832.378 1172.62 837.101 1192.19 841.796C1183.3 845.494 1174.43 849.231 1165.58 853.008C1147.08 847.684 1129.07 842.317 1111.57 836.907L1111.57 836.87ZM1136.63 827.072C1146.37 823.301 1156.13 819.563 1165.92 815.86C1186.17 820.087 1206.28 824.111 1226.26 827.932C1215.36 832.294 1204.49 836.722 1193.64 841.214C1174.06 836.562 1155.04 831.86 1136.59 827.109L1136.63 827.072ZM1167.54 815.25C1179.04 810.893 1190.58 806.58 1202.15 802.309C1223.77 805.668 1245.45 808.857 1267.17 811.876C1254.03 816.898 1240.92 822.022 1227.84 827.247C1207.84 823.476 1187.72 819.489 1167.49 815.287L1167.54 815.25ZM1203.95 801.69C1216.28 797.167 1228.66 792.696 1241.08 788.278C1264.54 790.743 1288.22 793.042 1312.12 795.174C1297.71 800.405 1283.32 805.757 1268.97 811.229C1247.21 808.24 1225.52 805.073 1203.9 801.727L1203.95 801.69ZM1243.1 787.567C1257.61 782.409 1272.18 777.334 1286.79 772.343C1313.26 773.736 1339.92 774.943 1366.77 775.966C1349.2 781.937 1331.67 788.099 1314.18 794.453C1290.22 792.333 1266.51 790.05 1243.05 787.603L1243.1 787.567ZM1289.09 771.567C1305.35 766.021 1321.68 760.564 1338.09 755.197C1368.02 755.705 1397.7 756.01 1427.36 756.121C1407.93 762.24 1388.54 768.578 1369.19 775.134C1342.29 774.13 1315.59 772.941 1289.09 771.567ZM1340.75 754.319C1362.58 747.183 1384.51 740.229 1406.54 733.457C1442.18 732.616 1477.5 731.673 1513.14 730.684C1485.45 738.411 1457.82 746.601 1430.25 755.252C1400.54 755.114 1370.78 754.818 1340.78 754.328L1340.75 754.319ZM1795.08 667.433C1741.68 676.633 1688.85 687.244 1636.6 699.266C1587.17 701.938 1539.75 704.757 1494.07 707.585C1525.97 698.545 1557.91 689.918 1589.89 681.704C1662 675.992 1730.73 671.13 1795.11 667.423L1795.08 667.433ZM1589.74 680.798C1543.36 684.496 1495.6 688.498 1446.7 692.815C1471.93 685.685 1496.82 678.826 1521.38 672.239C1586.74 665.214 1645.22 659.474 1697.49 654.797C1661.79 662.863 1625.88 671.527 1589.77 680.789L1589.74 680.798ZM1847.54 624.073C1800.74 632.586 1752.97 642.319 1704.7 653.152C1647.52 658.217 1588.01 664.124 1527.26 670.64C1561 661.619 1593.96 653.133 1625.86 645.249C1705.26 636.107 1779.65 628.981 1847.54 624.073ZM1625.64 644.343C1563.49 651.497 1498.27 659.881 1430.68 669.401C1438.08 667.497 1445.44 665.615 1452.78 663.754C1545.93 647.218 1637.29 632.604 1723.79 621.235C1692.57 628.205 1659.74 635.923 1625.64 644.343ZM1734.11 618.98C1648.56 629.989 1558.08 644.279 1465.71 660.574C1514.88 648.429 1563.88 637.679 1612.31 628.713C1638.98 624.054 1666.11 619.55 1693.67 615.199C1756.12 605.586 1813.99 598.22 1867.29 593.099C1827.87 599.523 1783.02 608.276 1734.15 618.98H1734.11ZM1411.68 667.349L1419.24 665.76C1397.67 670.511 1376.26 675.388 1355.02 680.392L1343.09 682.185C1366.41 677.039 1389.29 672.094 1411.72 667.349H1411.68ZM1316.45 687.176C1307.61 689.154 1298.71 691.169 1289.74 693.221C1266.32 697.781 1242.92 702.403 1219.55 707.086C1179.86 712.16 1140.42 717.337 1101.55 722.541C1174.71 709.72 1246.56 697.907 1316.48 687.176H1316.45ZM1020.85 733.466L989.066 737.847H974.495L1020.85 733.466ZM953.432 738.836H954.819L943.373 739.927C936.3 739.567 929.254 739.206 922.274 738.827H921.83C932.265 738.833 942.809 738.836 953.46 738.836H953.432ZM904.087 737.764H903.005C896.841 737.401 890.748 737.037 884.726 736.673L871.384 734.76L858.005 732.847C873.563 734.455 888.936 736.094 904.124 737.764H904.087ZM771.777 713.205L770.659 712.641C769.004 711.634 767.386 710.626 765.795 709.6L772.933 713.584L771.777 713.205ZM753.48 702.677L756.253 704.812C754.7 703.74 753.137 702.668 751.584 701.577L753.48 702.677ZM796.381 737.385L795.576 736.664H795.697C798.162 738.624 800.628 740.568 803.093 742.497H802.169L796.381 737.385ZM803.26 743.439H804.342L815.289 751.952L813.199 752.147L803.26 743.439ZM814.151 753.025L816.361 752.821L826.763 760.909L823.647 761.362L814.151 753.025ZM824.562 762.166L827.771 761.695C831.562 764.665 835.362 767.663 839.171 770.688L835.186 771.474L824.562 762.166ZM836.064 772.241L840.114 771.437C841.963 772.916 843.812 774.398 845.662 775.883L854.797 783.278L849.924 784.322C845.332 780.317 840.724 776.29 836.101 772.241H836.064ZM850.784 785.117L855.712 784.063L872.216 797.512L866.668 798.991C861.417 794.388 856.137 789.763 850.83 785.117H850.784ZM867.556 799.721L873.104 798.233L874.028 798.991C880.066 803.927 886.168 808.891 892.28 813.863L886.196 815.888C880.02 810.526 873.819 805.138 867.593 799.721H867.556ZM886.972 816.599L893.093 814.557C901.593 821.471 910.149 828.391 918.76 835.317L911.751 837.933C903.566 830.865 895.331 823.754 887.047 816.599H886.972ZM912.556 838.617L919.602 835.992C928.848 843.386 938.155 850.762 947.524 858.12L939.332 861.447C930.469 853.905 921.568 846.295 912.63 838.617H912.556ZM940.127 862.122C942.852 861.001 945.598 859.885 948.365 858.776C959.803 867.705 971.314 876.532 982.908 885.147L986.607 887.846L976.196 892.412C964.219 882.423 952.221 872.336 940.201 862.15L940.127 862.122ZM976.945 893.068L987.42 888.447C1000.28 897.967 1013.11 907.349 1025.91 916.592C1021.6 918.657 1017.28 920.721 1012.97 922.785C1001.03 913 989.051 903.094 977.019 893.068H976.945ZM1064.07 963.769C1047.3 950.552 1030.55 937.112 1013.81 923.451L1026.75 917.239C1045 930.402 1063.18 943.284 1081.3 955.885C1075.62 958.485 1069.9 961.114 1064.14 963.769H1064.07ZM1082.31 955.451C1064.18 942.849 1045.99 929.964 1027.76 916.796L1041.37 910.325C1060.97 923.204 1080.33 935.686 1099.44 947.77C1093.77 950.296 1088.09 952.853 1082.39 955.441L1082.31 955.451ZM1100.41 947.317C1081.3 935.214 1061.93 922.73 1042.3 909.863C1047.24 907.515 1052.2 905.177 1057.19 902.848C1077.89 915.363 1098.36 927.407 1118.93 939.146C1112.79 941.839 1106.63 944.559 1100.47 947.307L1100.41 947.317ZM1119.99 938.684C1099.4 926.945 1078.91 914.891 1058.19 902.376C1063.74 899.782 1069.28 897.2 1074.83 894.63C1097.38 906.73 1119.45 918.237 1141.5 929.394C1134.38 932.45 1127.23 935.544 1120.06 938.674L1119.99 938.684ZM1142.59 928.913C1120.52 917.757 1098.43 906.249 1075.85 894.141C1082.01 891.294 1088.18 888.456 1094.34 885.628C1118.66 897.145 1142.72 908.203 1166.51 918.801C1158.59 922.123 1150.64 925.49 1142.66 928.904L1142.59 928.913ZM1167.69 918.311C1143.86 907.719 1119.78 896.655 1095.43 885.119L1104.57 880.941L1116.84 875.395C1142.14 885.748 1168.55 896.266 1195.82 906.748C1186.5 910.538 1177.14 914.389 1167.76 918.302L1167.69 918.311ZM1197.08 906.231C1169.79 895.749 1143.34 885.23 1118.01 874.868C1125.15 871.664 1132.3 868.488 1139.47 865.339C1168.9 875.383 1198.28 884.959 1227.61 894.067C1217.48 898.053 1207.33 902.105 1197.16 906.221L1197.08 906.231ZM1228.99 893.53C1199.64 884.423 1170.21 874.841 1140.72 864.784C1148.98 861.173 1157.25 857.596 1165.52 854.053C1196.61 863.068 1228.97 871.929 1262.61 880.636C1251.43 884.851 1240.25 889.146 1229.06 893.521L1228.99 893.53ZM1285.04 872.271C1278.04 874.841 1271.05 877.444 1264.06 880.082C1230.45 871.418 1198.05 862.553 1166.86 853.489C1175.75 849.693 1184.66 845.943 1193.6 842.24C1228 850.454 1264 858.465 1301.59 866.272C1296.11 868.238 1290.62 870.232 1285.11 872.253L1285.04 872.271ZM1303.25 865.644C1265.65 857.929 1229.59 849.918 1195.07 841.611C1205.97 837.101 1216.89 832.658 1227.83 828.283C1262.8 834.975 1297.49 841.1 1331.91 846.658C1337.74 847.601 1343.6 848.525 1349.47 849.431C1334.01 854.712 1318.63 860.11 1303.33 865.625L1303.25 865.644ZM1351.29 848.821C1344.86 847.823 1338.45 846.806 1332.03 845.771C1298.03 840.28 1263.82 834.248 1229.41 827.673C1242.55 822.429 1255.74 817.283 1268.96 812.237C1315.76 818.725 1362.87 824.462 1410.3 829.447C1390.52 835.714 1370.87 842.166 1351.36 848.803L1351.29 848.821ZM1412.52 828.745C1364.9 823.772 1317.65 818.041 1270.76 811.553C1285.19 806.056 1299.68 800.68 1314.22 795.423C1368.86 800.267 1424.89 804.269 1483 807.439C1459.28 814.304 1435.81 821.4 1412.59 828.726L1412.52 828.745ZM1485.65 806.7C1427.31 803.502 1371.07 799.518 1316.23 794.684C1333.86 788.312 1351.52 782.125 1369.22 776.123C1438.41 778.749 1508.84 780.246 1580.45 781.05C1548.36 789.196 1516.78 797.743 1485.72 806.691L1485.65 806.7ZM1583.95 780.153C1511.99 779.368 1441.21 777.88 1371.7 775.273C1391.21 768.68 1410.75 762.314 1430.34 756.177C1441.29 756.226 1452.23 756.251 1463.18 756.251C1539.31 756.251 1616.01 755.188 1697.42 753.478C1658.81 761.895 1621.02 770.781 1584.03 780.135L1583.95 780.153ZM1702.12 752.507C1608.27 754.448 1520.75 755.603 1433.25 755.28C1460.69 746.715 1488.19 738.593 1515.74 730.915L1516.91 730.591C1564.39 729.242 1612.46 727.763 1662.64 726.229C1728.43 724.204 1795.88 722.134 1870.08 720.091C1812.11 730.046 1756.27 740.814 1702.2 752.489L1702.12 752.507Z" fill="url(#paint0_linear_1_120)"/>
<defs>
<linearGradient id="paint0_linear_1_120" x1="62.5" y1="463" x2="1833.5" y2="814" gradientUnits="userSpaceOnUse">
<stop stop-color="#009A93" stop-opacity="0"/>
<stop offset="0.359375" stop-color="#23A8A2"/>
<stop offset="0.677083" stop-color="#009A93"/>
<stop offset="1" stop-color="#009A93" stop-opacity="0"/>
</linearGradient>
</defs>
</svg>
