<svg width="118" height="20" viewBox="0 0 118 20" fill="none" xmlns="http://www.w3.org/2000/svg">
<g clip-path="url(#clip0_1_698)">
<path d="M12.1917 2.63256H12.9016L18.2141 12.8458H6.87924L12.1917 2.63256ZM10.2332 0.316895L0 19.7197H3.29273L5.58173 15.4053H19.4871L21.7761 19.7197H25.0688L14.7744 0.316895H10.2332Z" fill="white"/>
<path d="M49.4398 14.0646C49.4398 17.8306 47.3711 19.7197 43.2338 19.7197H27.6147V0.316895H42.5606C44.4579 0.316895 45.9267 0.755651 46.9917 1.63316C48.1545 2.57162 48.7298 3.9732 48.7298 5.82573C48.7298 7.77576 47.9954 9.03109 46.5143 9.56735C47.4813 9.85986 48.2035 10.4449 48.7054 11.298C49.195 12.0902 49.4398 13.0043 49.4398 14.0646ZM45.8288 5.82573C45.8288 3.91226 44.7394 2.94944 42.5483 2.94944H30.528V8.50702H42.5483C43.6255 8.50702 44.4089 8.32421 44.9108 7.95858C45.5228 7.55638 45.8288 6.83731 45.8288 5.82573ZM46.5265 14.0768C46.5265 13.1018 46.2205 12.3461 45.6207 11.7855C45.0209 11.2371 44.213 10.9567 43.2216 10.9567H30.528V17.0872H43.2093C45.4249 17.0993 46.5265 16.0878 46.5265 14.0768Z" fill="white"/>
<path d="M73.8476 14.3937C73.8476 16.7337 72.9662 18.2937 71.2036 19.0494C69.8082 19.6587 66.8827 19.9634 62.4271 19.9634C57.6532 19.9634 54.6053 19.4394 53.2588 18.4034C52.1817 17.5746 51.6431 15.844 51.6431 13.2236H54.5563C54.5563 15.0152 54.9725 16.1609 55.8049 16.6484C56.5883 17.1115 58.8038 17.3431 62.4515 17.3431C66.136 17.3431 68.4005 17.1846 69.2451 16.8678C70.3712 16.4534 70.9343 15.6246 70.9343 14.3693C70.9343 13.0774 70.5426 12.2608 69.7592 11.8952C69.1105 11.5783 66.8949 11.4199 63.0881 11.4199C58.559 11.4199 55.5478 10.8836 54.0545 9.81109C52.8794 8.95795 52.2918 7.48324 52.2918 5.39915C52.2918 3.13224 52.9895 1.65753 54.385 0.962828C55.707 0.31688 58.6202 0 63.1003 0C67.5192 0 70.3835 0.511883 71.6932 1.53565C72.7582 2.3766 73.2845 4.00975 73.2845 6.42291H70.4447C70.4447 4.81414 70.0163 3.766 69.1716 3.29068C68.3882 2.85192 66.3685 2.62035 63.1003 2.62035C60.3829 2.62035 58.6937 2.6691 58.0449 2.76661C56.1599 3.04692 55.2051 3.92444 55.2051 5.42352C55.2051 6.71542 55.7314 7.61731 56.7719 8.12919C57.7389 8.60451 60.1993 8.86045 64.153 8.87264C68.1067 8.88483 70.616 9.14077 71.6565 9.64046C73.1131 10.3352 73.8476 11.9196 73.8476 14.3937Z" fill="white"/>
<path d="M95.8198 19.7197H77.1528V0.316895H95.8198V2.94944H80.0661V8.58015H95.2445V11.2127H80.0661V17.0993H95.8198V19.7197Z" fill="#009A93"/>
<path d="M117.473 19.7197H99.6021V0.316895H102.528V17.0993H117.473V19.7197Z" fill="#009A93"/>
</g>
<defs>
<clipPath id="clip0_1_698">
<rect width="118" height="20" fill="white"/>
</clipPath>
</defs>
</svg>
